%TF.GenerationSoftware,Altium Limited,Altium Designer,21.7.2 (23)*%
G04 Layer_Color=8421504*
%FSLAX45Y45*%
%MOMM*%
%TF.SameCoordinates,ACC8E456-25BC-4CB5-B469-56B585E6E94B*%
%TF.FilePolarity,Positive*%
%TF.FileFunction,Paste,Top*%
%TF.Part,Single*%
G01*
G75*
%TA.AperFunction,ConnectorPad*%
%ADD10R,1.50000X0.90000*%
%ADD11R,0.90000X1.50000*%
%TA.AperFunction,BGAPad,CuDef*%
%ADD12R,1.00000X1.00000*%
%TA.AperFunction,SMDPad,CuDef*%
%ADD13R,1.47500X0.45000*%
%ADD14R,2.46000X2.31000*%
%ADD15R,1.52400X2.00000*%
%ADD16R,0.60000X0.63500*%
%ADD17R,0.96520X1.00000*%
%ADD18R,4.11000X4.36000*%
%ADD19R,1.00000X0.96520*%
%ADD20R,1.14300X1.50000*%
%ADD21R,0.63500X0.60000*%
%ADD22R,0.60000X1.47500*%
%ADD23R,1.47500X0.60000*%
%ADD24R,1.20000X1.40000*%
%ADD25R,0.47500X0.30000*%
%ADD26R,0.50000X1.07500*%
%ADD27R,0.40000X0.48000*%
%ADD28R,0.48000X0.40000*%
%ADD29R,0.30000X1.10000*%
%ADD30R,0.60000X1.10000*%
%ADD31R,1.50000X1.14300*%
%ADD32R,2.30000X3.50000*%
%ADD33R,0.60000X1.60000*%
%ADD34R,1.20000X1.80000*%
%ADD35R,2.00000X1.52400*%
D10*
X1646160Y6547500D02*
D03*
Y6420500D02*
D03*
Y6293500D02*
D03*
Y6166500D02*
D03*
Y6039500D02*
D03*
Y5912500D02*
D03*
Y5785500D02*
D03*
Y5658500D02*
D03*
Y5531500D02*
D03*
Y5404500D02*
D03*
Y5277500D02*
D03*
Y5150500D02*
D03*
Y5023500D02*
D03*
Y4896500D02*
D03*
X3396160D02*
D03*
Y5023500D02*
D03*
Y5150500D02*
D03*
Y5277500D02*
D03*
Y5404500D02*
D03*
Y5531500D02*
D03*
Y5658500D02*
D03*
Y5785500D02*
D03*
Y5912500D02*
D03*
Y6039500D02*
D03*
Y6166500D02*
D03*
Y6293500D02*
D03*
Y6420500D02*
D03*
Y6547500D02*
D03*
D11*
X1822660Y4771500D02*
D03*
X1949660D02*
D03*
X2076660D02*
D03*
X2203660D02*
D03*
X2330660D02*
D03*
X2457660D02*
D03*
X2584660D02*
D03*
X2711660D02*
D03*
X2838660D02*
D03*
X2965660D02*
D03*
X3092660D02*
D03*
X3219660D02*
D03*
D12*
X2385160Y6012500D02*
D03*
X2235160Y6162500D02*
D03*
Y6012500D02*
D03*
Y5862500D02*
D03*
X2385160D02*
D03*
X2535160D02*
D03*
Y6012500D02*
D03*
Y6162500D02*
D03*
X2385160D02*
D03*
D13*
X5761200Y2345000D02*
D03*
Y2280000D02*
D03*
Y2215000D02*
D03*
Y2150000D02*
D03*
Y2085000D02*
D03*
Y2020000D02*
D03*
Y1955000D02*
D03*
X6348800D02*
D03*
Y2020000D02*
D03*
Y2085000D02*
D03*
Y2150000D02*
D03*
Y2215000D02*
D03*
Y2280000D02*
D03*
Y2345000D02*
D03*
X968700Y3610000D02*
D03*
Y3545000D02*
D03*
Y3480000D02*
D03*
Y3415000D02*
D03*
Y3350000D02*
D03*
Y3285000D02*
D03*
Y3220000D02*
D03*
Y3155000D02*
D03*
Y3090000D02*
D03*
Y3025000D02*
D03*
Y2960000D02*
D03*
Y2895000D02*
D03*
Y2830000D02*
D03*
Y2765000D02*
D03*
Y2700000D02*
D03*
Y2635000D02*
D03*
X1726300D02*
D03*
Y2700000D02*
D03*
Y2765000D02*
D03*
Y2830000D02*
D03*
Y2895000D02*
D03*
Y2960000D02*
D03*
Y3025000D02*
D03*
Y3090000D02*
D03*
Y3155000D02*
D03*
Y3220000D02*
D03*
Y3285000D02*
D03*
Y3350000D02*
D03*
Y3415000D02*
D03*
Y3480000D02*
D03*
Y3545000D02*
D03*
Y3610000D02*
D03*
D14*
X6055000Y2150000D02*
D03*
D15*
X6699780Y1980000D02*
D03*
X7045220D02*
D03*
X2637280Y570000D02*
D03*
X2982720D02*
D03*
X2637280Y310000D02*
D03*
X2982720D02*
D03*
X6702280Y2300000D02*
D03*
X7047720D02*
D03*
D16*
X6540000Y1874080D02*
D03*
Y1990920D02*
D03*
X2135000Y2886580D02*
D03*
Y3003420D02*
D03*
X2017500Y3736580D02*
D03*
Y3853420D02*
D03*
X2012500Y3303420D02*
D03*
Y3186580D02*
D03*
X2000000Y2408420D02*
D03*
Y2291580D02*
D03*
X957500Y3991840D02*
D03*
Y3875000D02*
D03*
X307500Y3245920D02*
D03*
Y3129080D02*
D03*
X737500Y3689080D02*
D03*
Y3805920D02*
D03*
X767372Y3243657D02*
D03*
Y3126817D02*
D03*
X560000Y3124080D02*
D03*
Y3240920D02*
D03*
X5600000Y2636580D02*
D03*
Y2753420D02*
D03*
X6537500Y2422500D02*
D03*
Y2305660D02*
D03*
X4985000Y2523420D02*
D03*
Y2406580D02*
D03*
X4979340Y1909080D02*
D03*
Y2025920D02*
D03*
X1435160Y6074080D02*
D03*
Y6190920D02*
D03*
Y6410920D02*
D03*
Y6294080D02*
D03*
X3300000Y386840D02*
D03*
Y270000D02*
D03*
X3700000Y388420D02*
D03*
Y271580D02*
D03*
X3500000Y386840D02*
D03*
Y270000D02*
D03*
X685160Y4640920D02*
D03*
Y4524080D02*
D03*
X215160Y4574080D02*
D03*
Y4690920D02*
D03*
X3795160Y5480920D02*
D03*
Y5364080D02*
D03*
X4375160Y5430920D02*
D03*
Y5314080D02*
D03*
X4105160Y5420920D02*
D03*
Y5304080D02*
D03*
X3685160Y5480920D02*
D03*
Y5364080D02*
D03*
X2150000Y948420D02*
D03*
Y831580D02*
D03*
X1900000Y1181580D02*
D03*
Y1298420D02*
D03*
X1770000Y1181580D02*
D03*
Y1298420D02*
D03*
D17*
X2718720Y770000D02*
D03*
X2881280D02*
D03*
D18*
X1347500Y3122500D02*
D03*
D19*
X1665000Y4018780D02*
D03*
Y3856220D02*
D03*
X1525000Y4018780D02*
D03*
Y3856220D02*
D03*
X1385000Y4021280D02*
D03*
Y3858720D02*
D03*
X1240000Y4023780D02*
D03*
Y3861220D02*
D03*
X3300000Y538720D02*
D03*
Y701280D02*
D03*
X3500000Y538720D02*
D03*
Y701280D02*
D03*
X3700000Y538720D02*
D03*
Y701280D02*
D03*
X1440000Y816000D02*
D03*
Y978560D02*
D03*
D20*
X538480Y3500000D02*
D03*
X731520D02*
D03*
X533480Y2915000D02*
D03*
X726520D02*
D03*
X5331960Y2337500D02*
D03*
X5525000D02*
D03*
X5330980Y2102500D02*
D03*
X5524020D02*
D03*
D21*
X385920Y3460000D02*
D03*
X269080D02*
D03*
X755920Y2622500D02*
D03*
X639080D02*
D03*
X378420Y2955000D02*
D03*
X261580D02*
D03*
X378420Y2830000D02*
D03*
X261580D02*
D03*
X5210920Y2290000D02*
D03*
X5094080D02*
D03*
X5210920Y2415000D02*
D03*
X5094080D02*
D03*
X5209340Y2150000D02*
D03*
X5092500D02*
D03*
X5090920Y2030000D02*
D03*
X5207760D02*
D03*
X3809240Y4742500D02*
D03*
X3926080D02*
D03*
X385920Y3585000D02*
D03*
X269080D02*
D03*
X3923580Y4870000D02*
D03*
X3806740D02*
D03*
X1473580Y5502500D02*
D03*
X1356740D02*
D03*
X1473580Y5622500D02*
D03*
X1356740D02*
D03*
X1473580Y5742500D02*
D03*
X1356740D02*
D03*
X1472000Y5862500D02*
D03*
X1355160D02*
D03*
X963580Y6112500D02*
D03*
X846740D02*
D03*
X965160Y6012500D02*
D03*
X848320D02*
D03*
X1921580Y840000D02*
D03*
X2038420D02*
D03*
Y1060000D02*
D03*
X1921580D02*
D03*
D22*
X285160Y5008700D02*
D03*
X365160D02*
D03*
X445160D02*
D03*
X525160D02*
D03*
X605160D02*
D03*
X685160D02*
D03*
X765160D02*
D03*
X845160D02*
D03*
Y5856300D02*
D03*
X765160D02*
D03*
X685160D02*
D03*
X605160D02*
D03*
X525160D02*
D03*
X445160D02*
D03*
X365160D02*
D03*
X285160D02*
D03*
D23*
X988960Y5152500D02*
D03*
Y5232500D02*
D03*
Y5312500D02*
D03*
Y5392500D02*
D03*
Y5472500D02*
D03*
Y5552500D02*
D03*
Y5632500D02*
D03*
Y5712500D02*
D03*
X141360D02*
D03*
Y5632500D02*
D03*
Y5552500D02*
D03*
Y5472500D02*
D03*
Y5392500D02*
D03*
Y5312500D02*
D03*
Y5232500D02*
D03*
Y5152500D02*
D03*
D24*
X370160Y4722500D02*
D03*
Y4502500D02*
D03*
X540160D02*
D03*
Y4722500D02*
D03*
D25*
X1753800Y1075000D02*
D03*
Y1025000D02*
D03*
Y975000D02*
D03*
Y925000D02*
D03*
X1586200D02*
D03*
Y975000D02*
D03*
Y1025000D02*
D03*
Y1075000D02*
D03*
D26*
X4535160Y5480100D02*
D03*
Y5712500D02*
D03*
X3965160Y5486300D02*
D03*
Y5718700D02*
D03*
D27*
X4155160Y5668500D02*
D03*
Y5536500D02*
D03*
X4325160Y5668500D02*
D03*
Y5536500D02*
D03*
D28*
X3875160Y5752500D02*
D03*
X3743160D02*
D03*
X4619160Y5742500D02*
D03*
X4751160D02*
D03*
D29*
X4440160Y5892500D02*
D03*
X4340160D02*
D03*
X4190160D02*
D03*
X4090160D02*
D03*
X4140160D02*
D03*
X4240160D02*
D03*
X4290160D02*
D03*
X4390160D02*
D03*
D30*
X3945159D02*
D03*
X4025160D02*
D03*
X4505160D02*
D03*
X4585160D02*
D03*
D31*
X6307500Y2558480D02*
D03*
Y2751520D02*
D03*
X6106545Y2750700D02*
D03*
Y2557660D02*
D03*
X6210000Y1788040D02*
D03*
Y1595000D02*
D03*
X6012500Y1786520D02*
D03*
Y1593480D02*
D03*
D32*
X2972500Y1830000D02*
D03*
X2372500D02*
D03*
X2977500Y2585000D02*
D03*
X2377500D02*
D03*
X2977500Y3325000D02*
D03*
X2377500D02*
D03*
X2977500Y4062500D02*
D03*
X2377500D02*
D03*
X2330000Y390000D02*
D03*
X1730000D02*
D03*
D33*
X525160Y6132500D02*
D03*
X325160D02*
D03*
X225160D02*
D03*
X425160D02*
D03*
D34*
X85160Y6512500D02*
D03*
X665160D02*
D03*
D35*
X980000Y734560D02*
D03*
Y1080000D02*
D03*
X1240000Y734560D02*
D03*
Y1080000D02*
D03*
%TF.MD5,8ee7b969119024fed9d82299ff4f4161*%
M02*
