%TF.GenerationSoftware,Altium Limited,Altium Designer,21.7.2 (23)*%
G04 Layer_Color=255*
%FSLAX45Y45*%
%MOMM*%
%TF.SameCoordinates,ACC8E456-25BC-4CB5-B469-56B585E6E94B*%
%TF.FilePolarity,Positive*%
%TF.FileFunction,Pads,Bot*%
%TF.Part,Single*%
G01*
G75*
%TA.AperFunction,ComponentPad*%
%ADD41C,1.60000*%
G04:AMPARAMS|DCode=42|XSize=1.6mm|YSize=1.6mm|CornerRadius=0mm|HoleSize=0mm|Usage=FLASHONLY|Rotation=90.000|XOffset=0mm|YOffset=0mm|HoleType=Round|Shape=Octagon|*
%AMOCTAGOND42*
4,1,8,0.40000,0.80000,-0.40000,0.80000,-0.80000,0.40000,-0.80000,-0.40000,-0.40000,-0.80000,0.40000,-0.80000,0.80000,-0.40000,0.80000,0.40000,0.40000,0.80000,0.0*
%
%ADD42OCTAGOND42*%

%ADD43C,2.70000*%
%ADD44R,1.10000X1.10000*%
%ADD45C,1.10000*%
%ADD46R,1.10000X1.10000*%
%ADD47C,1.15000*%
%ADD48O,2.00000X2.85000*%
%ADD49O,2.00000X2.28000*%
D41*
X7363160Y5265811D02*
D03*
Y5019811D02*
D03*
X5965660Y5247133D02*
D03*
Y5001133D02*
D03*
X5967660Y6037500D02*
D03*
Y5791500D02*
D03*
Y6299500D02*
D03*
X7365160Y6055000D02*
D03*
Y5809000D02*
D03*
Y6317000D02*
D03*
D42*
X7363160Y4765811D02*
D03*
X5965660Y4747133D02*
D03*
X5967660Y5537500D02*
D03*
X7365160Y5555000D02*
D03*
D43*
X4042500Y3920000D02*
D03*
Y3420000D02*
D03*
X488517Y365000D02*
D03*
Y865000D02*
D03*
X7477500Y880000D02*
D03*
Y380000D02*
D03*
X4290160Y4825000D02*
D03*
X4790160D02*
D03*
X7442500Y2430000D02*
D03*
Y1930000D02*
D03*
X4062500Y2422500D02*
D03*
Y1922500D02*
D03*
X6222500Y365000D02*
D03*
X6722500D02*
D03*
X5322500D02*
D03*
X4822500D02*
D03*
D44*
X485000Y1400000D02*
D03*
X3405000Y3830000D02*
D03*
X3435000Y2325000D02*
D03*
D45*
X485000Y1650000D02*
D03*
X6970000Y1005000D02*
D03*
X6007500Y1012500D02*
D03*
X3405000Y3580000D02*
D03*
X3435000Y2075000D02*
D03*
X5195000Y1002500D02*
D03*
D46*
X6720000Y1005000D02*
D03*
X6257500Y1012500D02*
D03*
X4945000Y1002500D02*
D03*
D47*
X1092160Y6422500D02*
D03*
Y6295500D02*
D03*
X965160Y6422500D02*
D03*
Y6295500D02*
D03*
X838160Y6422500D02*
D03*
Y6295500D02*
D03*
D48*
X3703160Y6407500D02*
D03*
X4827160D02*
D03*
D49*
X3703160Y6007500D02*
D03*
X4827160D02*
D03*
%TF.MD5,070a6f89ca4219b5414efeab538342f8*%
M02*
