%TF.GenerationSoftware,Altium Limited,Altium Designer,21.7.2 (23)*%
G04 Layer_Physical_Order=1*
G04 Layer_Color=255*
%FSLAX45Y45*%
%MOMM*%
%TF.SameCoordinates,ACC8E456-25BC-4CB5-B469-56B585E6E94B*%
%TF.FilePolarity,Positive*%
%TF.FileFunction,Copper,L1,Top,Signal*%
%TF.Part,Single*%
G01*
G75*
%TA.AperFunction,ConnectorPad*%
%ADD10R,1.50000X0.90000*%
%ADD11R,0.90000X1.50000*%
%TA.AperFunction,BGAPad,CuDef*%
%ADD12R,1.00000X1.00000*%
%TA.AperFunction,SMDPad,CuDef*%
%ADD13R,1.47500X0.45000*%
%ADD14R,2.46000X2.31000*%
%ADD15R,1.52400X2.00000*%
%ADD16R,0.60000X0.63500*%
%ADD17R,0.96520X1.00000*%
%ADD18R,4.11000X4.36000*%
%ADD19R,1.00000X0.96520*%
%ADD20R,1.14300X1.50000*%
%ADD21R,0.63500X0.60000*%
%ADD22R,0.60000X1.47500*%
%ADD23R,1.47500X0.60000*%
%ADD24R,1.20000X1.40000*%
%ADD25R,0.47500X0.30000*%
%ADD26R,0.50000X1.07500*%
%ADD27R,0.40000X0.48000*%
%ADD28R,0.48000X0.40000*%
%ADD29R,0.30000X1.10000*%
%ADD30R,0.60000X1.10000*%
%ADD31R,1.50000X1.14300*%
%ADD32R,2.30000X3.50000*%
%ADD33R,0.60000X1.60000*%
%ADD34R,1.20000X1.80000*%
%ADD35R,2.00000X1.52400*%
%TA.AperFunction,Conductor*%
%ADD36C,0.40000*%
%ADD37C,0.60000*%
%ADD38C,0.30000*%
%ADD39C,0.20000*%
%ADD40C,0.50000*%
%TA.AperFunction,ComponentPad*%
%ADD41C,1.60000*%
G04:AMPARAMS|DCode=42|XSize=1.6mm|YSize=1.6mm|CornerRadius=0mm|HoleSize=0mm|Usage=FLASHONLY|Rotation=90.000|XOffset=0mm|YOffset=0mm|HoleType=Round|Shape=Octagon|*
%AMOCTAGOND42*
4,1,8,0.40000,0.80000,-0.40000,0.80000,-0.80000,0.40000,-0.80000,-0.40000,-0.40000,-0.80000,0.40000,-0.80000,0.80000,-0.40000,0.80000,0.40000,0.40000,0.80000,0.0*
%
%ADD42OCTAGOND42*%

%ADD43C,2.70000*%
%ADD44R,1.10000X1.10000*%
%ADD45C,1.10000*%
%ADD46R,1.10000X1.10000*%
%ADD47C,1.15000*%
%ADD48O,2.00000X2.85000*%
%ADD49O,2.00000X2.28000*%
%TA.AperFunction,ViaPad*%
%ADD50C,0.40000*%
%ADD51C,0.60000*%
%ADD52C,0.50000*%
G36*
X1545760Y6540645D02*
X1446875D01*
X1438018Y6538883D01*
X1430510Y6533866D01*
X1418794Y6522150D01*
X1413777Y6514641D01*
X1412015Y6505784D01*
Y6468070D01*
X1379760D01*
Y6423620D01*
X1435160D01*
X1490560D01*
Y6468070D01*
X1458304D01*
Y6494355D01*
X1545760D01*
Y6477100D01*
X1558460D01*
Y6362800D01*
X1558459D01*
Y6351199D01*
X1558460D01*
Y6327130D01*
X1477860D01*
Y6338530D01*
X1392460D01*
Y6317225D01*
X1230167D01*
X1164827Y6382564D01*
X1169410Y6390502D01*
X1175060Y6411586D01*
Y6433414D01*
X1169410Y6454498D01*
X1158496Y6473402D01*
X1143062Y6488836D01*
X1124158Y6499751D01*
X1103074Y6505400D01*
X1081246D01*
X1060162Y6499751D01*
X1041258Y6488836D01*
X1028660Y6476238D01*
X1019125Y6485773D01*
X1016674Y6501283D01*
X1034746Y6519355D01*
X1255573D01*
X1277123Y6497805D01*
X1276610Y6495227D01*
X1262433Y6481049D01*
X1254760Y6462525D01*
Y6442475D01*
X1262433Y6423951D01*
X1276610Y6409773D01*
X1295135Y6402100D01*
X1315185D01*
X1333709Y6409773D01*
X1347887Y6423951D01*
X1355560Y6442475D01*
Y6462525D01*
X1347887Y6481049D01*
X1333709Y6495227D01*
X1328304Y6497466D01*
Y6502500D01*
X1326543Y6511357D01*
X1321525Y6518866D01*
X1295314Y6545078D01*
X1300174Y6556811D01*
X1545760D01*
Y6540645D01*
D02*
G37*
G36*
X3295760Y6535645D02*
X3252660D01*
X3243803Y6533883D01*
X3236294Y6528866D01*
X3196294Y6488866D01*
X3191277Y6481357D01*
X3189515Y6472500D01*
X3191277Y6463643D01*
X3196294Y6456134D01*
X3203803Y6451117D01*
X3212660Y6449355D01*
X3221517Y6451117D01*
X3229026Y6456134D01*
X3262247Y6489355D01*
X3295760D01*
Y6477100D01*
X3308460D01*
Y6363900D01*
X3308460Y6362800D01*
Y6351200D01*
X3308460Y6350100D01*
Y6236900D01*
X3308460Y6235800D01*
Y6224200D01*
X3308460Y6223100D01*
Y6195645D01*
X3114746D01*
X2766524Y6543867D01*
X2766159Y6544111D01*
X2770012Y6556811D01*
X3295760D01*
Y6535645D01*
D02*
G37*
G36*
X7669311Y80689D02*
X80689D01*
Y5097100D01*
X128660D01*
Y5152499D01*
X141360D01*
Y5165199D01*
X240510D01*
Y5207900D01*
X227810D01*
Y5269800D01*
Y5349800D01*
Y5429800D01*
Y5509800D01*
Y5589800D01*
Y5669800D01*
Y5755200D01*
X80689D01*
Y6409800D01*
X157860D01*
Y6556811D01*
X592460D01*
Y6409800D01*
X737860D01*
Y6556811D01*
X990146D01*
X995006Y6545078D01*
X966971Y6517043D01*
X961954Y6509535D01*
X961132Y6505400D01*
X954246D01*
X933162Y6499751D01*
X914258Y6488836D01*
X901660Y6476238D01*
X889062Y6488836D01*
X870158Y6499751D01*
X849074Y6505400D01*
X827246D01*
X806162Y6499751D01*
X787258Y6488836D01*
X771823Y6473402D01*
X760909Y6454498D01*
X755260Y6433414D01*
Y6411586D01*
X760909Y6390502D01*
X771823Y6371598D01*
X784422Y6359000D01*
X771823Y6346402D01*
X760909Y6327498D01*
X755260Y6306414D01*
Y6284586D01*
X760909Y6263502D01*
X771823Y6244598D01*
X787258Y6229164D01*
X806162Y6218249D01*
X827246Y6212600D01*
X849074D01*
X870158Y6218249D01*
X889062Y6229164D01*
X901660Y6241762D01*
X914258Y6229164D01*
X933162Y6218249D01*
X952460Y6213079D01*
Y6295499D01*
X977860D01*
Y6213079D01*
X997158Y6218249D01*
X1016062Y6229164D01*
X1028660Y6241762D01*
X1041258Y6229164D01*
X1060162Y6218249D01*
X1081246Y6212600D01*
X1103074D01*
X1122661Y6217848D01*
X1257100Y6083409D01*
Y6068469D01*
X1264012Y6051783D01*
X1276783Y6039012D01*
X1293469Y6032100D01*
X1311531D01*
X1328217Y6039012D01*
X1329945Y6040739D01*
X1391819D01*
Y6026470D01*
X1331585Y5966235D01*
X1324357Y5955419D01*
X1321819Y5942660D01*
Y5905200D01*
X1310710D01*
Y5895840D01*
X1278432D01*
X1265673Y5893302D01*
X1254856Y5886075D01*
X1231425Y5862644D01*
X1224197Y5851827D01*
X1221659Y5839068D01*
Y5718810D01*
X1168690Y5665841D01*
X1088110D01*
Y5699799D01*
X988960D01*
Y5712499D01*
X976260D01*
Y5767900D01*
X899752D01*
X889535Y5769575D01*
X887860Y5779792D01*
Y5942750D01*
X880080D01*
Y5969800D01*
X892770D01*
Y6055200D01*
X880870D01*
Y6069800D01*
X891190D01*
Y6155200D01*
X802290D01*
Y6069800D01*
X814189D01*
Y6055200D01*
X803870D01*
Y5969800D01*
X813399D01*
Y5942750D01*
X439154D01*
X434294Y5954483D01*
X448735Y5968924D01*
X455962Y5979741D01*
X458500Y5992500D01*
Y6039800D01*
X467860D01*
Y6062051D01*
X480560Y6067642D01*
X482460Y6065902D01*
Y6039800D01*
X567860D01*
Y6073924D01*
X567887Y6073951D01*
X575560Y6092475D01*
Y6112525D01*
X567887Y6131049D01*
X567860Y6131076D01*
Y6225200D01*
X482460D01*
Y6139098D01*
X480560Y6137358D01*
X467860Y6142948D01*
Y6225200D01*
X382460Y6225200D01*
X380560Y6237112D01*
Y6237900D01*
X337860D01*
Y6132500D01*
X312460D01*
Y6237900D01*
X269760D01*
Y6237113D01*
X267860Y6225200D01*
X257060Y6225200D01*
X182460D01*
Y6039800D01*
X201819D01*
Y6009840D01*
X204357Y5997081D01*
X211585Y5986265D01*
X242417Y5955432D01*
X242460Y5942750D01*
X242460D01*
Y5769850D01*
X571819D01*
Y5750436D01*
X562433Y5741049D01*
X554760Y5722525D01*
Y5702475D01*
X562433Y5683951D01*
X576610Y5669773D01*
X595135Y5662100D01*
X615185D01*
X633709Y5669773D01*
X639119Y5675183D01*
X651819Y5669922D01*
Y5655983D01*
X642051D01*
X623527Y5648310D01*
X609350Y5634132D01*
X601676Y5615608D01*
Y5595558D01*
X609350Y5577034D01*
X623527Y5562856D01*
X642051Y5555183D01*
X662102D01*
X662904Y5555515D01*
X670098Y5544749D01*
X263906Y5138557D01*
X256679Y5127740D01*
X254141Y5114981D01*
Y5107735D01*
X253380Y5107040D01*
X252550D01*
X241760Y5111923D01*
X240510Y5114031D01*
Y5139799D01*
X154060D01*
Y5097100D01*
X230567D01*
X240784Y5095424D01*
X242460Y5085208D01*
Y4922250D01*
X336917D01*
Y4805200D01*
X297460D01*
Y4719163D01*
X257860D01*
Y4735370D01*
X172460D01*
Y4646470D01*
X257860D01*
Y4662677D01*
X297460D01*
Y4639800D01*
X442060D01*
X442860Y4639800D01*
X454760Y4637869D01*
Y4627100D01*
X527460D01*
Y4722500D01*
Y4817900D01*
X465166D01*
X462640Y4830600D01*
X470877Y4834012D01*
X483648Y4846783D01*
X490560Y4863469D01*
Y4881531D01*
X483648Y4898217D01*
X473403Y4908463D01*
Y4922250D01*
X582015D01*
Y4894841D01*
X583777Y4885983D01*
X588794Y4878475D01*
X693634Y4773634D01*
X701143Y4768617D01*
X710000Y4766855D01*
X864006D01*
X866210Y4761534D01*
X878981Y4748762D01*
X895668Y4741851D01*
X913729D01*
X930415Y4748762D01*
X943187Y4761534D01*
X950098Y4778220D01*
Y4796281D01*
X943187Y4812968D01*
X938930Y4817225D01*
X950988Y4829283D01*
X953115Y4834417D01*
X965815Y4831891D01*
Y4575627D01*
X252714Y3862526D01*
X247697Y3855018D01*
X245935Y3846160D01*
Y3627700D01*
X224630D01*
Y3542300D01*
X313530D01*
Y3627700D01*
X292225D01*
Y3836574D01*
X998547Y4542895D01*
X2079413D01*
X2081940Y4530195D01*
X2071783Y4525988D01*
X2059012Y4513217D01*
X2052100Y4496531D01*
Y4478469D01*
X2059012Y4461783D01*
X2071783Y4449012D01*
X2088469Y4442100D01*
X2106531D01*
X2123217Y4449012D01*
X2123561Y4449355D01*
X3167938D01*
X3170465Y4436655D01*
X3156783Y4430988D01*
X3144012Y4418217D01*
X3137100Y4401531D01*
Y4383469D01*
X3144012Y4366783D01*
X3156783Y4354012D01*
X3173469Y4347100D01*
X3191531D01*
X3208217Y4354012D01*
X3220988Y4366783D01*
X3226587Y4380299D01*
X3722328D01*
X3723394Y4377727D01*
X3736165Y4364955D01*
X3752852Y4358044D01*
X3770913D01*
X3787599Y4364955D01*
X3800371Y4377727D01*
X3807282Y4394413D01*
Y4412474D01*
X3800371Y4429161D01*
X3794368Y4435163D01*
X3805988Y4446783D01*
X3812900Y4463469D01*
Y4481531D01*
X3805988Y4498217D01*
X3793217Y4510988D01*
X3776531Y4517900D01*
X3758469D01*
X3741783Y4510988D01*
X3729012Y4498217D01*
X3727946Y4495645D01*
X2142900D01*
Y4496531D01*
X2135988Y4513217D01*
X2123217Y4525988D01*
X2113060Y4530195D01*
X2115587Y4542895D01*
X4241873D01*
X4624355Y4160413D01*
Y2712500D01*
X4626117Y2703643D01*
X4631134Y2696134D01*
X4820214Y2507054D01*
X4827723Y2502037D01*
X4836580Y2500275D01*
X4942300D01*
Y2478970D01*
X5027700D01*
Y2567870D01*
X4942300D01*
Y2546565D01*
X4846167D01*
X4670645Y2722087D01*
Y4170000D01*
X4668883Y4178857D01*
X4663866Y4186366D01*
X4267826Y4582406D01*
X4260317Y4587423D01*
X4251460Y4589185D01*
X4251532Y4601855D01*
X4277913D01*
X4746918Y4132851D01*
Y2786650D01*
X4744346Y2785585D01*
X4731574Y2772813D01*
X4724663Y2756127D01*
Y2738066D01*
X4731574Y2721379D01*
X4744346Y2708608D01*
X4761032Y2701696D01*
X4779093D01*
X4795780Y2708608D01*
X4808551Y2721379D01*
X4815463Y2738066D01*
Y2756127D01*
X4808551Y2772813D01*
X4795780Y2785585D01*
X4793207Y2786650D01*
Y4142437D01*
X4791446Y4151294D01*
X4786428Y4158803D01*
X4621352Y4323880D01*
X4621821Y4326269D01*
X4632500Y4336855D01*
X5657946D01*
X5659012Y4334283D01*
X5671783Y4321512D01*
X5688469Y4314600D01*
X5706531D01*
X5723217Y4321512D01*
X5735988Y4334283D01*
X5742900Y4350969D01*
Y4369031D01*
X5735988Y4385717D01*
X5723217Y4398488D01*
X5706531Y4405400D01*
X5688469D01*
X5671783Y4398488D01*
X5659012Y4385717D01*
X5657946Y4383145D01*
X4642087D01*
X4614334Y4410897D01*
X4615400Y4413469D01*
Y4431531D01*
X4612035Y4439655D01*
X4620521Y4452355D01*
X5075784D01*
X5084642Y4454117D01*
X5092150Y4459134D01*
X5103866Y4470850D01*
X5108883Y4478358D01*
X5110645Y4487216D01*
Y4900413D01*
X5434220Y5223988D01*
X5862744D01*
X5867443Y5206450D01*
X5881319Y5182416D01*
X5900943Y5162792D01*
X5924977Y5148916D01*
X5951784Y5141733D01*
X5979536D01*
X6006343Y5148916D01*
X6030377Y5162792D01*
X6050001Y5182416D01*
X6063877Y5206450D01*
X6071060Y5233257D01*
Y5261009D01*
X6063877Y5287816D01*
X6050001Y5311850D01*
X6030377Y5331474D01*
X6006343Y5345350D01*
X5979536Y5352533D01*
X5951784D01*
X5924977Y5345350D01*
X5900943Y5331474D01*
X5881319Y5311850D01*
X5867443Y5287816D01*
X5862744Y5270278D01*
X5424633D01*
X5415776Y5268516D01*
X5408267Y5263499D01*
X5071134Y4926366D01*
X5066117Y4918857D01*
X5064355Y4910000D01*
Y4498645D01*
X4562021D01*
X4561467Y4499980D01*
X4548696Y4512752D01*
X4532010Y4519663D01*
X4513948D01*
X4497262Y4512752D01*
X4484491Y4499980D01*
X4478258Y4484934D01*
X4465846Y4479386D01*
X4303866Y4641366D01*
X4296357Y4646383D01*
X4287500Y4648145D01*
X2350645D01*
Y4683800D01*
X2387260D01*
X2388360Y4683800D01*
X2399960D01*
X2401060Y4683800D01*
X2514260D01*
X2515360Y4683800D01*
X2526960D01*
X2528060Y4683800D01*
X2641260D01*
X2642360Y4683800D01*
X2653960D01*
X2655060Y4683800D01*
X2768260D01*
X2769360Y4683800D01*
X2780960D01*
X2782060Y4683800D01*
X2895260D01*
X2896360Y4683800D01*
X2907960D01*
X2909060Y4683800D01*
X3022260D01*
X3023360Y4683800D01*
X3034960D01*
X3036060Y4683800D01*
X3149260D01*
X3150360Y4683800D01*
X3161960D01*
X3163060Y4683800D01*
X3277360D01*
Y4859200D01*
X3189608D01*
X3187082Y4871900D01*
X3198217Y4876512D01*
X3210988Y4889283D01*
X3215878Y4901089D01*
X3229633Y4905295D01*
X3254794Y4880134D01*
X3262303Y4875117D01*
X3271160Y4873355D01*
X3308460D01*
Y4838800D01*
X3461542D01*
X3470028Y4826100D01*
X3467100Y4819031D01*
Y4800969D01*
X3474012Y4784283D01*
X3486783Y4771512D01*
X3488855Y4770653D01*
Y4760500D01*
X3490617Y4751643D01*
X3495634Y4744135D01*
X3518634Y4721134D01*
X3526143Y4716117D01*
X3535000Y4714355D01*
X3764790D01*
Y4699800D01*
X3793691D01*
X3800209Y4697100D01*
X3818270D01*
X3824789Y4699800D01*
X3853690D01*
Y4731176D01*
X3854640Y4733469D01*
Y4751531D01*
X3853690Y4753824D01*
Y4785200D01*
X3824789D01*
X3818270Y4787900D01*
X3800209D01*
X3793691Y4785200D01*
X3764790D01*
Y4760645D01*
X3544587D01*
X3544265Y4760966D01*
X3538217Y4771512D01*
X3550988Y4784283D01*
X3557900Y4800969D01*
Y4819031D01*
X3550988Y4835717D01*
X3538217Y4848488D01*
X3535145Y4849761D01*
Y4972074D01*
X3547845Y4974601D01*
X3549012Y4971783D01*
X3561783Y4959012D01*
X3578469Y4952100D01*
X3596531D01*
X3613217Y4959012D01*
X3625988Y4971783D01*
X3627054Y4974355D01*
X3782311D01*
Y4916316D01*
X3779739Y4915251D01*
X3777188Y4912700D01*
X3762290D01*
Y4891186D01*
X3760056Y4885793D01*
Y4867732D01*
X3762290Y4862339D01*
Y4827300D01*
X3851190D01*
Y4912700D01*
X3833724D01*
X3831173Y4915251D01*
X3828601Y4916316D01*
Y4985784D01*
X3826839Y4994642D01*
X3821822Y5002150D01*
X3810106Y5013866D01*
X3802597Y5018883D01*
X3793740Y5020645D01*
X3627054D01*
X3625988Y5023217D01*
X3613217Y5035988D01*
X3610645Y5037054D01*
Y5462500D01*
X3608883Y5471357D01*
X3603866Y5478866D01*
X3534866Y5547865D01*
X3527357Y5552883D01*
X3518500Y5554644D01*
X3483860D01*
Y5588100D01*
X3483860Y5589200D01*
Y5600800D01*
X3483860Y5601900D01*
Y5715100D01*
X3483860Y5716200D01*
Y5727800D01*
X3483860Y5728900D01*
Y5842100D01*
X3483860Y5843200D01*
Y5854800D01*
X3483860Y5855900D01*
Y5969100D01*
X3483860Y5970200D01*
Y5981800D01*
X3483860Y5982900D01*
Y6096100D01*
X3483860Y6097200D01*
Y6108800D01*
X3483860Y6109900D01*
Y6223100D01*
X3483860Y6224200D01*
Y6235800D01*
X3483860Y6236900D01*
Y6350100D01*
X3483860Y6351200D01*
Y6362800D01*
X3483860Y6363900D01*
Y6477100D01*
X3496560D01*
Y6556811D01*
X3616611D01*
X3620694Y6544785D01*
X3613723Y6539436D01*
X3593623Y6513241D01*
X3580988Y6482736D01*
X3576678Y6450000D01*
Y6420200D01*
X3703160D01*
Y6407500D01*
X3715860D01*
Y6240190D01*
X3735896Y6242828D01*
X3743909Y6246147D01*
X3754469Y6239091D01*
Y6147409D01*
X3743909Y6140353D01*
X3735896Y6143672D01*
X3715860Y6146310D01*
Y6007501D01*
Y5868690D01*
X3735896Y5871328D01*
X3766401Y5883963D01*
X3786248Y5899193D01*
X3794814Y5892620D01*
X3814276Y5884559D01*
X3825101Y5883134D01*
X3829653Y5869725D01*
X3804794Y5844866D01*
X3800766Y5838838D01*
X3759828Y5797900D01*
X3755860D01*
Y5765200D01*
X3792591D01*
X3837526Y5810134D01*
X3841554Y5816163D01*
X3878026Y5852635D01*
X3889760Y5847775D01*
Y5812100D01*
X4000559D01*
X4002015Y5800003D01*
Y5788286D01*
X3998878Y5785149D01*
X3927460D01*
Y5775645D01*
X3911860D01*
Y5785200D01*
X3838460D01*
Y5719800D01*
X3911860D01*
Y5729355D01*
X3927460D01*
Y5652250D01*
X4002860D01*
Y5736143D01*
X4005748D01*
X4014605Y5737905D01*
X4022114Y5742922D01*
X4041525Y5762334D01*
X4046543Y5769842D01*
X4048304Y5778699D01*
Y5824800D01*
X4067015D01*
Y5465370D01*
X4062460D01*
Y5376470D01*
X4147860D01*
Y5465370D01*
X4113304D01*
Y5487100D01*
X4142460D01*
Y5536500D01*
Y5585900D01*
X4113304D01*
Y5623242D01*
X4122460Y5631800D01*
X4127654D01*
X4129443Y5630012D01*
X4146129Y5623100D01*
X4164191D01*
X4180877Y5630012D01*
X4182665Y5631800D01*
X4187860D01*
Y5636995D01*
X4193648Y5642783D01*
X4194714Y5645355D01*
X4237342D01*
X4246199Y5647117D01*
X4253707Y5652134D01*
X4265423Y5663850D01*
X4267174Y5666470D01*
X4279874Y5662618D01*
Y5658595D01*
X4286786Y5641908D01*
X4292460Y5636234D01*
Y5631800D01*
X4296894D01*
X4299557Y5629137D01*
X4316243Y5622225D01*
X4334305D01*
X4350991Y5629137D01*
X4353654Y5631800D01*
X4357859D01*
X4367015Y5623242D01*
Y5585900D01*
X4337860D01*
Y5536500D01*
X4325160D01*
Y5523800D01*
X4279760D01*
Y5487100D01*
X4330118D01*
X4332459Y5475370D01*
X4332460D01*
Y5386470D01*
X4417860D01*
Y5475370D01*
X4413304D01*
Y5824800D01*
X4497015D01*
Y5742500D01*
X4497460Y5740264D01*
Y5646050D01*
X4572860D01*
Y5702315D01*
X4582460Y5709800D01*
X4655860D01*
Y5775200D01*
X4582460D01*
X4582460Y5775200D01*
X4572860Y5778951D01*
Y5778950D01*
X4571313Y5778950D01*
X4543305D01*
Y5812100D01*
X4640559D01*
X4640559Y5812100D01*
Y5812100D01*
X4652235Y5808693D01*
X4701760Y5759168D01*
Y5755200D01*
X4738460D01*
Y5787931D01*
X4657282Y5869109D01*
X4662192Y5881809D01*
X4690160D01*
X4711044Y5884559D01*
X4730505Y5892620D01*
X4741571Y5901111D01*
X4763918Y5883963D01*
X4794423Y5871328D01*
X4814459Y5868690D01*
Y6007501D01*
X4827159D01*
Y6020201D01*
X4953642D01*
Y6021500D01*
X4949332Y6054236D01*
X4936696Y6084741D01*
X4916596Y6110936D01*
X4890401Y6131037D01*
X4859896Y6143672D01*
X4850304Y6144935D01*
Y6241565D01*
X4859896Y6242828D01*
X4890401Y6255463D01*
X4916596Y6275564D01*
X4936696Y6301759D01*
X4949332Y6332264D01*
X4953642Y6365000D01*
Y6394800D01*
X4827159D01*
Y6420200D01*
X4953642D01*
Y6450000D01*
X4949332Y6482736D01*
X4936696Y6513241D01*
X4916596Y6539436D01*
X4909626Y6544785D01*
X4913708Y6556811D01*
X7669311D01*
Y80689D01*
D02*
G37*
G36*
X1204214Y6277714D02*
X1211723Y6272697D01*
X1220580Y6270935D01*
X1392460D01*
Y6249630D01*
X1401819D01*
Y6235370D01*
X1392460D01*
Y6146470D01*
X1477860D01*
Y6235370D01*
X1468500D01*
Y6249630D01*
X1477860D01*
Y6260449D01*
X1558460D01*
Y6236900D01*
X1558460Y6235800D01*
Y6224200D01*
X1558460Y6223100D01*
Y6109900D01*
X1558460Y6108800D01*
Y6097200D01*
X1558460Y6096100D01*
Y5982900D01*
X1558460Y5981800D01*
Y5970200D01*
X1558460Y5969100D01*
Y5855900D01*
X1558460Y5854800D01*
Y5843200D01*
X1558460Y5842100D01*
Y5728900D01*
X1558460Y5727800D01*
Y5716200D01*
X1558460Y5715100D01*
Y5601900D01*
X1558460Y5600800D01*
Y5589200D01*
X1558460Y5588100D01*
Y5474900D01*
X1558460Y5473800D01*
Y5462200D01*
X1558460Y5461100D01*
Y5437840D01*
X1539035D01*
X1530730Y5447100D01*
X1530730Y5450541D01*
Y5489800D01*
X1416430D01*
Y5450541D01*
X1416429Y5447100D01*
X1408124Y5437840D01*
X1171096D01*
X1163709Y5445227D01*
X1145185Y5452900D01*
X1125135D01*
X1106610Y5445227D01*
X1092433Y5431049D01*
X1088110Y5420612D01*
X1075410Y5423139D01*
Y5497100D01*
X1088110D01*
Y5539800D01*
X988960D01*
X889810D01*
Y5497100D01*
X902510D01*
Y5429800D01*
Y5349800D01*
Y5269800D01*
Y5189800D01*
Y5109800D01*
X965815D01*
Y4878109D01*
X953115Y4875583D01*
X950988Y4880717D01*
X938217Y4893488D01*
X921531Y4900400D01*
X903469D01*
X886783Y4893488D01*
X874012Y4880717D01*
X872946Y4878145D01*
X754587D01*
X728304Y4904427D01*
Y4922250D01*
X887860D01*
Y5095150D01*
X558500D01*
Y5144564D01*
X567887Y5153951D01*
X575560Y5172475D01*
Y5192525D01*
X567887Y5211049D01*
X553709Y5225227D01*
X535185Y5232900D01*
X515135D01*
X496610Y5225227D01*
X482433Y5211049D01*
X474760Y5192525D01*
Y5172475D01*
X482433Y5153951D01*
X491819Y5144564D01*
Y5095150D01*
X332761D01*
X327500Y5107850D01*
X818810Y5599159D01*
X889810D01*
Y5565200D01*
X988960D01*
X1088110D01*
Y5599159D01*
X1182500D01*
X1195259Y5601697D01*
X1206075Y5608925D01*
X1278575Y5681425D01*
X1285803Y5692241D01*
X1288341Y5705000D01*
Y5825258D01*
X1292242Y5829159D01*
X1310710D01*
Y5819800D01*
X1322609D01*
Y5785200D01*
X1312290D01*
Y5699800D01*
X1323399D01*
Y5665200D01*
X1312290D01*
Y5579800D01*
X1323399D01*
Y5545200D01*
X1312290D01*
Y5513024D01*
X1309600Y5506531D01*
Y5488469D01*
X1312290Y5481976D01*
Y5459800D01*
X1328495D01*
X1329283Y5459012D01*
X1345969Y5452100D01*
X1364031D01*
X1380717Y5459012D01*
X1381505Y5459800D01*
X1401190D01*
Y5545200D01*
X1390080D01*
Y5579800D01*
X1401190D01*
Y5665200D01*
X1390080D01*
Y5699800D01*
X1401190D01*
Y5785200D01*
X1389290D01*
Y5819800D01*
X1399610D01*
Y5905200D01*
X1388500D01*
Y5928850D01*
X1448735Y5989084D01*
X1455962Y5999901D01*
X1458500Y6012660D01*
Y6029630D01*
X1477860D01*
Y6118530D01*
X1392460D01*
Y6107420D01*
X1336785D01*
X1328217Y6115988D01*
X1312179Y6122631D01*
X1169811Y6264999D01*
X1175060Y6284586D01*
Y6288908D01*
X1187760Y6294168D01*
X1204214Y6277714D01*
D02*
G37*
G36*
X1558460Y5346800D02*
X1558459D01*
Y5335199D01*
X1558460D01*
Y5310840D01*
X1207900D01*
Y5320025D01*
X1200227Y5338549D01*
X1186050Y5352727D01*
X1184574Y5367085D01*
X1187918Y5371159D01*
X1558460D01*
Y5346800D01*
D02*
G37*
G36*
X2117487Y6544111D02*
X2114760Y6537526D01*
Y6517476D01*
X2122433Y6498952D01*
X2136610Y6484774D01*
X2155135Y6477101D01*
X2175185D01*
X2193709Y6484774D01*
X2207887Y6498952D01*
X2210125Y6504356D01*
X2740572D01*
X3088794Y6156134D01*
X3096303Y6151117D01*
X3105160Y6149355D01*
X3308460D01*
Y6109900D01*
X3308460Y6108800D01*
Y6097200D01*
X3308460Y6096100D01*
Y5982900D01*
X3308460Y5981800D01*
Y5970200D01*
X3308460Y5969100D01*
Y5855900D01*
X3308460Y5854800D01*
Y5843200D01*
X3308460Y5842100D01*
Y5728900D01*
X3308460Y5727800D01*
Y5716200D01*
X3308460Y5715100D01*
Y5601900D01*
X3308460Y5600800D01*
Y5589200D01*
X3308460Y5588100D01*
Y5474900D01*
X3308460Y5473800D01*
Y5462200D01*
X3308460Y5461100D01*
Y5347900D01*
X3308460Y5346800D01*
Y5335200D01*
X3308460Y5334100D01*
Y5220900D01*
X3308460Y5219800D01*
Y5208200D01*
X3308460Y5207100D01*
Y5093900D01*
X3308460Y5092800D01*
Y5081200D01*
X3308460Y5080100D01*
Y4966900D01*
X3308460Y4965800D01*
Y4954200D01*
X3308460Y4953100D01*
Y4919644D01*
X3280747D01*
X3104025Y5096366D01*
X3096517Y5101383D01*
X3087660Y5103145D01*
X2518861D01*
X2512065Y5115845D01*
X2516923Y5127575D01*
Y5145636D01*
X2515858Y5148208D01*
X2549504Y5181855D01*
X2597946D01*
X2599012Y5179283D01*
X2611783Y5166512D01*
X2628469Y5159600D01*
X2646531D01*
X2663217Y5166512D01*
X2675988Y5179283D01*
X2682900Y5195969D01*
Y5214031D01*
X2675988Y5230717D01*
X2663217Y5243488D01*
X2646531Y5250400D01*
X2628469D01*
X2611783Y5243488D01*
X2599012Y5230717D01*
X2597946Y5228145D01*
X2539918D01*
X2531061Y5226383D01*
X2523552Y5221366D01*
X2483126Y5180940D01*
X2480554Y5182005D01*
X2462492D01*
X2445806Y5175094D01*
X2433035Y5162322D01*
X2426123Y5145636D01*
Y5127575D01*
X2430982Y5115845D01*
X2424185Y5103145D01*
X2309510D01*
X1847262Y5565393D01*
X1849500Y5570798D01*
Y5590848D01*
X1841827Y5609372D01*
X1827650Y5623550D01*
X1809126Y5631223D01*
X1789075D01*
X1770551Y5623550D01*
X1756374Y5609372D01*
X1748701Y5590848D01*
Y5570798D01*
X1756374Y5552274D01*
X1770551Y5538096D01*
X1789075Y5530423D01*
X1809126D01*
X1814530Y5532662D01*
X2283558Y5063634D01*
X2291066Y5058617D01*
X2299924Y5056855D01*
X3066101D01*
X3067271Y5055104D01*
X3067372Y5054084D01*
X3061955Y5040202D01*
X3051783Y5035988D01*
X3039012Y5023217D01*
X3036911Y5018145D01*
X2371018D01*
X2370988Y5018217D01*
X2358217Y5030988D01*
X2341531Y5037900D01*
X2323469D01*
X2306783Y5030988D01*
X2294012Y5018217D01*
X2287100Y5001531D01*
Y4983469D01*
X2294012Y4966783D01*
X2306783Y4954012D01*
X2307699Y4949405D01*
X2299012Y4940717D01*
X2292100Y4924031D01*
Y4905969D01*
X2299012Y4889283D01*
X2311783Y4876512D01*
X2322918Y4871900D01*
X2320392Y4859200D01*
X2274060D01*
X2272960Y4859200D01*
X2261360D01*
X2260260Y4859200D01*
X2147060D01*
X2145960Y4859200D01*
X2134360D01*
X2133260Y4859200D01*
X2020060D01*
X2018960Y4859200D01*
X2007360D01*
X2006260Y4859200D01*
X1893060D01*
X1891960Y4859200D01*
X1880360D01*
X1879260Y4859200D01*
X1764960D01*
Y4683800D01*
X1879260D01*
X1880360Y4683800D01*
X1891960D01*
X1893060Y4683800D01*
X2006260D01*
X2007360Y4683800D01*
X2018960D01*
X2020060Y4683800D01*
X2133260D01*
X2134360Y4683800D01*
X2145960D01*
X2147060Y4683800D01*
X2182897D01*
Y4589185D01*
X1400521D01*
X1392035Y4601885D01*
X1395400Y4610009D01*
Y4628071D01*
X1388488Y4644757D01*
X1379493Y4653753D01*
Y4937787D01*
X1388488Y4946783D01*
X1395400Y4963469D01*
Y4981531D01*
X1388488Y4998217D01*
X1375717Y5010988D01*
X1359031Y5017900D01*
X1340969D01*
X1324283Y5010988D01*
X1311512Y4998217D01*
X1304600Y4981531D01*
Y4963469D01*
X1311512Y4946783D01*
X1323007Y4935288D01*
Y4656253D01*
X1311512Y4644757D01*
X1304600Y4628071D01*
Y4610009D01*
X1307965Y4601885D01*
X1299479Y4589185D01*
X1012104D01*
Y5109800D01*
X1075410D01*
Y5209355D01*
X1092913D01*
X1121855Y5180413D01*
Y4717134D01*
X1119031Y4705400D01*
X1100969D01*
X1084283Y4698488D01*
X1071512Y4685717D01*
X1064600Y4669031D01*
Y4650969D01*
X1071512Y4634283D01*
X1084283Y4621512D01*
X1100969Y4614600D01*
X1119031D01*
X1135717Y4621512D01*
X1148488Y4634283D01*
X1155400Y4650969D01*
Y4669031D01*
X1154126Y4672105D01*
X1161366Y4679345D01*
X1166383Y4686853D01*
X1168145Y4695710D01*
Y5190000D01*
X1166383Y5198857D01*
X1161366Y5206366D01*
X1118866Y5248866D01*
X1111357Y5253883D01*
X1102500Y5255645D01*
X1075410D01*
Y5381861D01*
X1088110Y5384388D01*
X1092433Y5373951D01*
X1106610Y5359773D01*
X1114690Y5356426D01*
X1117670Y5341446D01*
X1114773Y5338549D01*
X1107100Y5320025D01*
Y5299975D01*
X1114773Y5281451D01*
X1128951Y5267273D01*
X1147475Y5259600D01*
X1163456D01*
X1169131Y5253924D01*
X1179948Y5246697D01*
X1192707Y5244159D01*
X1558460D01*
Y5220900D01*
X1558460Y5219800D01*
Y5208200D01*
X1558460Y5207100D01*
Y5093900D01*
X1558460Y5092800D01*
Y5081200D01*
X1558460Y5080100D01*
Y4966900D01*
X1558460Y4965800D01*
Y4954200D01*
X1558460Y4953100D01*
Y4838800D01*
X1733860D01*
Y4873355D01*
X1774000D01*
X1782857Y4875117D01*
X1790365Y4880134D01*
X1888866Y4978634D01*
X1893883Y4986143D01*
X1895645Y4995000D01*
Y5307946D01*
X1898217Y5309012D01*
X1910988Y5321783D01*
X1917900Y5338469D01*
Y5356531D01*
X1910988Y5373217D01*
X1898217Y5385988D01*
X1881531Y5392900D01*
X1863469D01*
X1846783Y5385988D01*
X1834012Y5373217D01*
X1827100Y5356531D01*
Y5338469D01*
X1834012Y5321783D01*
X1846783Y5309012D01*
X1849355Y5307946D01*
Y5004587D01*
X1764413Y4919644D01*
X1733860D01*
Y4953100D01*
X1733860Y4954200D01*
Y4965800D01*
X1733860Y4966900D01*
Y5080100D01*
X1733860Y5081200D01*
Y5092800D01*
X1733860Y5093900D01*
Y5207100D01*
X1733860Y5208200D01*
Y5219800D01*
X1733860Y5220900D01*
Y5335199D01*
X1733860D01*
Y5346800D01*
X1733860D01*
Y5461100D01*
X1733860Y5462200D01*
Y5473800D01*
X1733860Y5474900D01*
Y5588100D01*
X1733860Y5589200D01*
Y5600800D01*
X1733860Y5601900D01*
Y5715100D01*
X1733860Y5716200D01*
Y5727800D01*
X1733860Y5728900D01*
Y5842100D01*
X1733860Y5843200D01*
Y5854800D01*
X1733860Y5855900D01*
Y5969100D01*
X1733860Y5970200D01*
Y5981800D01*
X1733860Y5982900D01*
Y6096100D01*
X1733860Y6097200D01*
Y6108800D01*
X1733860Y6109900D01*
Y6223100D01*
X1733860Y6224200D01*
Y6235800D01*
X1733860Y6236900D01*
Y6351199D01*
X1733860D01*
Y6362800D01*
X1733860D01*
Y6477100D01*
X1746560D01*
Y6556811D01*
X2109001D01*
X2117487Y6544111D01*
D02*
G37*
G36*
X3564355Y5452913D02*
Y5037054D01*
X3561783Y5035988D01*
X3549012Y5023217D01*
X3547845Y5020399D01*
X3535145Y5022926D01*
Y5392784D01*
X3533383Y5401641D01*
X3528366Y5409150D01*
X3516650Y5420865D01*
X3509141Y5425883D01*
X3500284Y5427644D01*
X3483860D01*
Y5461100D01*
X3483860Y5462200D01*
Y5473800D01*
X3483860Y5474900D01*
Y5508355D01*
X3508913D01*
X3564355Y5452913D01*
D02*
G37*
G36*
X3162795Y4972133D02*
X3158589Y4958378D01*
X3146783Y4953488D01*
X3134012Y4940717D01*
X3132946Y4938145D01*
X2377054D01*
X2375988Y4940717D01*
X2363217Y4953488D01*
X2362301Y4958095D01*
X2370988Y4966783D01*
X2373089Y4971855D01*
X3038982D01*
X3039012Y4971783D01*
X3051783Y4959012D01*
X3068469Y4952100D01*
X3086531D01*
X3103217Y4959012D01*
X3115988Y4971783D01*
X3122900Y4988469D01*
Y4994067D01*
X3135600Y4999328D01*
X3162795Y4972133D01*
D02*
G37*
G36*
X3134012Y4889283D02*
X3146783Y4876512D01*
X3149246Y4875491D01*
X3153066Y4862137D01*
X3152465Y4860412D01*
X3149260Y4859200D01*
X3036060D01*
X3034960Y4859200D01*
X3023360D01*
X3022260Y4859200D01*
X2909060D01*
X2907960Y4859200D01*
X2896360D01*
X2895260Y4859200D01*
X2782060D01*
X2780960Y4859200D01*
X2769360D01*
X2768260Y4859200D01*
X2655060D01*
X2653960Y4859200D01*
X2642360D01*
X2641260Y4859200D01*
X2528060D01*
X2526960Y4859200D01*
X2515360D01*
X2514260Y4859200D01*
X2401060D01*
X2399960Y4859200D01*
X2388360D01*
X2387260Y4859200D01*
X2354608D01*
X2352082Y4871900D01*
X2363217Y4876512D01*
X2375988Y4889283D01*
X2377054Y4891855D01*
X3132946D01*
X3134012Y4889283D01*
D02*
G37*
%LPC*%
G36*
X1490560Y6398220D02*
X1447860D01*
Y6353770D01*
X1490560D01*
Y6398220D01*
D02*
G37*
G36*
X1422460D02*
X1379760D01*
Y6353770D01*
X1422460D01*
Y6398220D01*
D02*
G37*
G36*
X7379036Y6422400D02*
X7351284D01*
X7324477Y6415217D01*
X7300443Y6401341D01*
X7280819Y6381717D01*
X7266943Y6357683D01*
X7259899Y6331395D01*
X6068231D01*
X6065877Y6340183D01*
X6052001Y6364217D01*
X6032377Y6383841D01*
X6008343Y6397717D01*
X5981536Y6404900D01*
X5953783D01*
X5926977Y6397717D01*
X5902942Y6383841D01*
X5883319Y6364217D01*
X5869443Y6340183D01*
X5862260Y6313377D01*
Y6285624D01*
X5869443Y6258817D01*
X5883319Y6234783D01*
X5902942Y6215159D01*
X5926977Y6201283D01*
X5953783Y6194100D01*
X5981536D01*
X6008343Y6201283D01*
X6032377Y6215159D01*
X6052001Y6234783D01*
X6065877Y6258817D01*
X6072921Y6285105D01*
X7264588D01*
X7266943Y6276317D01*
X7280819Y6252283D01*
X7300443Y6232659D01*
X7324477Y6218783D01*
X7351284Y6211600D01*
X7379036D01*
X7405843Y6218783D01*
X7429877Y6232659D01*
X7449501Y6252283D01*
X7463377Y6276317D01*
X7470560Y6303124D01*
Y6330876D01*
X7463377Y6357683D01*
X7449501Y6381717D01*
X7429877Y6401341D01*
X7405843Y6415217D01*
X7379036Y6422400D01*
D02*
G37*
G36*
X3690460Y6394800D02*
X3576678D01*
Y6365000D01*
X3580988Y6332264D01*
X3593623Y6301759D01*
X3613723Y6275564D01*
X3639919Y6255463D01*
X3670424Y6242828D01*
X3690460Y6240190D01*
Y6394800D01*
D02*
G37*
G36*
X1020730Y6167900D02*
X976280D01*
Y6125200D01*
X1020730D01*
Y6167900D01*
D02*
G37*
G36*
X950880D02*
X906430D01*
Y6125200D01*
X950880D01*
Y6167900D01*
D02*
G37*
G36*
X7379036Y6160400D02*
X7351284D01*
X7324477Y6153217D01*
X7300443Y6139341D01*
X7280819Y6119717D01*
X7266943Y6095683D01*
X7259899Y6069395D01*
X6068231D01*
X6065877Y6078183D01*
X6052001Y6102217D01*
X6032377Y6121841D01*
X6008343Y6135717D01*
X5981536Y6142900D01*
X5953783D01*
X5926977Y6135717D01*
X5902942Y6121841D01*
X5883319Y6102217D01*
X5869443Y6078183D01*
X5862260Y6051377D01*
Y6023624D01*
X5869443Y5996817D01*
X5883319Y5972783D01*
X5902942Y5953159D01*
X5926977Y5939283D01*
X5953783Y5932100D01*
X5981536D01*
X6008343Y5939283D01*
X6032377Y5953159D01*
X6052001Y5972783D01*
X6065877Y5996817D01*
X6072921Y6023105D01*
X7264588D01*
X7266943Y6014317D01*
X7280819Y5990283D01*
X7300443Y5970659D01*
X7324477Y5956783D01*
X7351284Y5949600D01*
X7379036D01*
X7405843Y5956783D01*
X7429877Y5970659D01*
X7449501Y5990283D01*
X7463377Y6014317D01*
X7470560Y6041124D01*
Y6068876D01*
X7463377Y6095683D01*
X7449501Y6119717D01*
X7429877Y6139341D01*
X7405843Y6153217D01*
X7379036Y6160400D01*
D02*
G37*
G36*
X1020730Y6099800D02*
X906430D01*
Y6057100D01*
X908010D01*
Y6025200D01*
X1022310D01*
Y6067900D01*
X1020730D01*
Y6099800D01*
D02*
G37*
G36*
X3690460Y6146310D02*
X3670424Y6143672D01*
X3639919Y6131037D01*
X3613723Y6110936D01*
X3593623Y6084741D01*
X3580988Y6054236D01*
X3576678Y6021500D01*
Y6020201D01*
X3690460D01*
Y6146310D01*
D02*
G37*
G36*
X1022310Y5999800D02*
X977860D01*
Y5957100D01*
X1022310D01*
Y5999800D01*
D02*
G37*
G36*
X952460D02*
X908010D01*
Y5957100D01*
X952460D01*
Y5999800D01*
D02*
G37*
G36*
X3690460Y5994801D02*
X3576678D01*
Y5993500D01*
X3580988Y5960764D01*
X3593623Y5930259D01*
X3613723Y5904064D01*
X3639919Y5883963D01*
X3670424Y5871328D01*
X3690460Y5868690D01*
Y5994801D01*
D02*
G37*
G36*
X4953642D02*
X4839859D01*
Y5868690D01*
X4859896Y5871328D01*
X4890401Y5883963D01*
X4916596Y5904064D01*
X4936696Y5930259D01*
X4949332Y5960764D01*
X4953642Y5993500D01*
Y5994801D01*
D02*
G37*
G36*
X7379036Y5914400D02*
X7377860D01*
Y5821701D01*
X7470560D01*
Y5822876D01*
X7463377Y5849683D01*
X7449501Y5873717D01*
X7429877Y5893341D01*
X7405843Y5907217D01*
X7379036Y5914400D01*
D02*
G37*
G36*
X7352460D02*
X7351284D01*
X7324477Y5907217D01*
X7300443Y5893341D01*
X7280819Y5873717D01*
X7266943Y5849683D01*
X7259760Y5822876D01*
Y5821701D01*
X7352460D01*
Y5914400D01*
D02*
G37*
G36*
X5981536Y5896900D02*
X5980360D01*
Y5804200D01*
X6073059D01*
Y5805377D01*
X6065877Y5832183D01*
X6052001Y5856217D01*
X6032377Y5875841D01*
X6008343Y5889717D01*
X5981536Y5896900D01*
D02*
G37*
G36*
X5954960D02*
X5953783D01*
X5926977Y5889717D01*
X5902942Y5875841D01*
X5883319Y5856217D01*
X5869443Y5832183D01*
X5862260Y5805377D01*
Y5804200D01*
X5954960D01*
Y5896900D01*
D02*
G37*
G36*
X3730460Y5797900D02*
X3693760D01*
Y5765200D01*
X3730460D01*
Y5797900D01*
D02*
G37*
G36*
X4800560Y5787900D02*
X4763860D01*
Y5755200D01*
X4800560D01*
Y5787900D01*
D02*
G37*
G36*
X1088110Y5767900D02*
X1001660D01*
Y5725199D01*
X1088110D01*
Y5767900D01*
D02*
G37*
G36*
X3792560Y5739800D02*
X3755860D01*
Y5707100D01*
X3792560D01*
Y5739800D01*
D02*
G37*
G36*
X3730460D02*
X3693760D01*
Y5707100D01*
X3730460D01*
Y5739800D01*
D02*
G37*
G36*
X7470560Y5796301D02*
X7377860D01*
Y5703600D01*
X7379036D01*
X7405843Y5710783D01*
X7429877Y5724659D01*
X7449501Y5744283D01*
X7463377Y5768317D01*
X7470560Y5795124D01*
Y5796301D01*
D02*
G37*
G36*
X7352460D02*
X7259760D01*
Y5795124D01*
X7266943Y5768317D01*
X7280819Y5744283D01*
X7300443Y5724659D01*
X7324477Y5710783D01*
X7351284Y5703600D01*
X7352460D01*
Y5796301D01*
D02*
G37*
G36*
X4800560Y5729800D02*
X4763860D01*
Y5697100D01*
X4800560D01*
Y5729800D01*
D02*
G37*
G36*
X4738460D02*
X4701760D01*
Y5697100D01*
X4738460D01*
Y5729800D01*
D02*
G37*
G36*
X6073059Y5778800D02*
X5980360D01*
Y5686100D01*
X5981536D01*
X6008343Y5693283D01*
X6032377Y5707159D01*
X6052001Y5726783D01*
X6065877Y5750817D01*
X6073059Y5777624D01*
Y5778800D01*
D02*
G37*
G36*
X5954960D02*
X5862260D01*
Y5777624D01*
X5869443Y5750817D01*
X5883319Y5726783D01*
X5902942Y5707159D01*
X5926977Y5693283D01*
X5953783Y5686100D01*
X5954960D01*
Y5778800D01*
D02*
G37*
G36*
X7417860Y5660400D02*
X7312460D01*
X7259760Y5607700D01*
Y5574493D01*
X6073059D01*
Y5590200D01*
X6020360Y5642900D01*
X5914960D01*
X5862260Y5590200D01*
Y5484800D01*
X5914960Y5432100D01*
X6020360D01*
X6073059Y5484800D01*
Y5518007D01*
X7259760D01*
Y5502300D01*
X7312460Y5449600D01*
X7417860D01*
X7470560Y5502300D01*
Y5607700D01*
X7417860Y5660400D01*
D02*
G37*
G36*
X4200560Y5585900D02*
X4167860D01*
Y5549200D01*
X4200560D01*
Y5585900D01*
D02*
G37*
G36*
X4312460D02*
X4279760D01*
Y5549200D01*
X4312460D01*
Y5585900D01*
D02*
G37*
G36*
X3850560Y5538070D02*
X3807860D01*
Y5493620D01*
X3850560D01*
Y5538070D01*
D02*
G37*
G36*
X3672460D02*
X3629760D01*
Y5493620D01*
X3672460D01*
Y5538070D01*
D02*
G37*
G36*
X4200560Y5523800D02*
X4167860D01*
Y5487100D01*
X4200560D01*
Y5523800D01*
D02*
G37*
G36*
X3850560Y5468220D02*
X3807860D01*
Y5423770D01*
X3850560D01*
Y5468220D01*
D02*
G37*
G36*
X3782460Y5538070D02*
X3697860D01*
Y5480920D01*
Y5423770D01*
X3782460D01*
Y5480920D01*
Y5538070D01*
D02*
G37*
G36*
X3672460Y5468220D02*
X3629760D01*
Y5423770D01*
X3672460D01*
Y5468220D01*
D02*
G37*
G36*
X4002860Y5552750D02*
X3927460D01*
Y5419850D01*
X3936917D01*
Y5393352D01*
X3935887Y5392323D01*
X3837860D01*
Y5408530D01*
X3752460D01*
Y5392323D01*
X3727860D01*
Y5408530D01*
X3642460D01*
Y5319630D01*
X3662015D01*
Y5129216D01*
X3663777Y5120359D01*
X3668794Y5112850D01*
X3680510Y5101134D01*
X3688018Y5096117D01*
X3696876Y5094355D01*
X3787946D01*
X3789012Y5091783D01*
X3801783Y5079012D01*
X3818469Y5072100D01*
X3836531D01*
X3853217Y5079012D01*
X3865988Y5091783D01*
X3867054Y5094355D01*
X4498444D01*
X4507301Y5096117D01*
X4514810Y5101134D01*
X4551526Y5137850D01*
X4556543Y5145359D01*
X4558305Y5154216D01*
Y5413650D01*
X4572860D01*
Y5546550D01*
X4497460D01*
Y5413650D01*
X4512015D01*
Y5163803D01*
X4488857Y5140645D01*
X3867054D01*
X3865988Y5143217D01*
X3853217Y5155988D01*
X3836531Y5162900D01*
X3818469D01*
X3801783Y5155988D01*
X3789012Y5143217D01*
X3787946Y5140645D01*
X3708304D01*
Y5319630D01*
X3727860D01*
Y5335837D01*
X3752460D01*
Y5319630D01*
X3837860D01*
Y5335837D01*
X3947585D01*
X3947586Y5335837D01*
X3958394Y5337987D01*
X3967557Y5344109D01*
X3985130Y5361682D01*
X3985130Y5361683D01*
X3991253Y5370846D01*
X3993403Y5381654D01*
X3993402Y5381655D01*
Y5419850D01*
X4002860D01*
Y5552750D01*
D02*
G37*
G36*
X4430560Y5371230D02*
X4387860D01*
Y5326780D01*
X4430560D01*
Y5371230D01*
D02*
G37*
G36*
X4362460D02*
X4319760D01*
Y5326780D01*
X4362460D01*
Y5371230D01*
D02*
G37*
G36*
X4160560Y5361230D02*
X4117860D01*
Y5316780D01*
X4160560D01*
Y5361230D01*
D02*
G37*
G36*
X4092460D02*
X4049760D01*
Y5316780D01*
X4092460D01*
Y5361230D01*
D02*
G37*
G36*
X4430560Y5301380D02*
X4387860D01*
Y5256930D01*
X4430560D01*
Y5301380D01*
D02*
G37*
G36*
X4362460D02*
X4319760D01*
Y5256930D01*
X4362460D01*
Y5301380D01*
D02*
G37*
G36*
X4160560Y5291380D02*
X4117860D01*
Y5246930D01*
X4160560D01*
Y5291380D01*
D02*
G37*
G36*
X4092460D02*
X4049760D01*
Y5246930D01*
X4092460D01*
Y5291380D01*
D02*
G37*
G36*
X7377036Y5371210D02*
X7349283D01*
X7322477Y5364028D01*
X7298443Y5350152D01*
X7278819Y5330528D01*
X7264943Y5306494D01*
X7257760Y5279687D01*
Y5251934D01*
X7264943Y5225128D01*
X7278819Y5201093D01*
X7298443Y5181470D01*
X7322477Y5167594D01*
X7349283Y5160411D01*
X7377036D01*
X7403843Y5167594D01*
X7427877Y5181470D01*
X7447501Y5201093D01*
X7461377Y5225128D01*
X7468560Y5251934D01*
Y5279687D01*
X7461377Y5306494D01*
X7447501Y5330528D01*
X7427877Y5350152D01*
X7403843Y5364028D01*
X7377036Y5371210D01*
D02*
G37*
G36*
Y5125210D02*
X7375860D01*
Y5032511D01*
X7468560D01*
Y5033687D01*
X7461377Y5060494D01*
X7447501Y5084528D01*
X7427877Y5104152D01*
X7403843Y5118028D01*
X7377036Y5125210D01*
D02*
G37*
G36*
X7350460D02*
X7349283D01*
X7322477Y5118028D01*
X7298443Y5104152D01*
X7278819Y5084528D01*
X7264943Y5060494D01*
X7257760Y5033687D01*
Y5032511D01*
X7350460D01*
Y5125210D01*
D02*
G37*
G36*
X5979536Y5106533D02*
X5978360D01*
Y5013833D01*
X6071060D01*
Y5015009D01*
X6063877Y5041816D01*
X6050001Y5065850D01*
X6030377Y5085474D01*
X6006343Y5099350D01*
X5979536Y5106533D01*
D02*
G37*
G36*
X5952960D02*
X5951784D01*
X5924977Y5099350D01*
X5900943Y5085474D01*
X5881319Y5065850D01*
X5867443Y5041816D01*
X5860260Y5015009D01*
Y5013833D01*
X5952960D01*
Y5106533D01*
D02*
G37*
G36*
X7468560Y5007111D02*
X7375860D01*
Y4914411D01*
X7377036D01*
X7403843Y4921594D01*
X7427877Y4935470D01*
X7447501Y4955093D01*
X7461377Y4979128D01*
X7468560Y5005934D01*
Y5007111D01*
D02*
G37*
G36*
X7350460D02*
X7257760D01*
Y5005934D01*
X7264943Y4979128D01*
X7278819Y4955093D01*
X7298443Y4935470D01*
X7322477Y4921594D01*
X7349283Y4914411D01*
X7350460D01*
Y5007111D01*
D02*
G37*
G36*
X6071060Y4988433D02*
X5978360D01*
Y4895733D01*
X5979536D01*
X6006343Y4902916D01*
X6030377Y4916792D01*
X6050001Y4936416D01*
X6063877Y4960450D01*
X6071060Y4987257D01*
Y4988433D01*
D02*
G37*
G36*
X5952960D02*
X5860260D01*
Y4987257D01*
X5867443Y4960450D01*
X5881319Y4936416D01*
X5900943Y4916792D01*
X5924977Y4902916D01*
X5951784Y4895733D01*
X5952960D01*
Y4988433D01*
D02*
G37*
G36*
X5254260Y4934043D02*
X5236199D01*
X5219513Y4927131D01*
X5206741Y4914360D01*
X5199830Y4897674D01*
Y4879612D01*
X5202393Y4873423D01*
X5202333Y4873334D01*
X5192150Y4864966D01*
X5179031Y4870400D01*
X5160969D01*
X5144283Y4863488D01*
X5131512Y4850717D01*
X5124600Y4834031D01*
Y4815969D01*
X5131512Y4799283D01*
X5144283Y4786512D01*
X5160969Y4779600D01*
X5179031D01*
X5181603Y4780666D01*
X5353634Y4608634D01*
X5361143Y4603617D01*
X5370000Y4601855D01*
X6526725D01*
X6535582Y4603617D01*
X6543090Y4608634D01*
X6677122Y4742666D01*
X7257760D01*
Y4713111D01*
X7310460Y4660411D01*
X7415860D01*
X7468560Y4713111D01*
Y4818511D01*
X7415860Y4871210D01*
X7310460D01*
X7257760Y4818511D01*
Y4788955D01*
X6667535D01*
X6658678Y4787194D01*
X6651170Y4782176D01*
X6517138Y4648145D01*
X6041365D01*
X6036505Y4659878D01*
X6071060Y4694433D01*
Y4799833D01*
X6018360Y4852533D01*
X5912960D01*
X5860260Y4799833D01*
Y4770278D01*
X5396326D01*
X5289564Y4877040D01*
X5290629Y4879612D01*
Y4897674D01*
X5283718Y4914360D01*
X5270947Y4927131D01*
X5254260Y4934043D01*
D02*
G37*
G36*
X4305958Y4985400D02*
X4274362D01*
X4243373Y4979236D01*
X4214182Y4967145D01*
X4187911Y4949591D01*
X4165570Y4927249D01*
X4148016Y4900978D01*
X4135924Y4871787D01*
X4129760Y4840798D01*
Y4818305D01*
X4125160D01*
X4116303Y4816544D01*
X4108795Y4811526D01*
X4042913Y4745645D01*
X3970530D01*
Y4785200D01*
X3881630D01*
Y4699800D01*
X3943844D01*
X3946080Y4699355D01*
X4052500D01*
X4061357Y4701117D01*
X4068866Y4706134D01*
X4127674Y4764943D01*
X4142655Y4761963D01*
X4148016Y4749022D01*
X4165570Y4722751D01*
X4187911Y4700409D01*
X4214182Y4682856D01*
X4243373Y4670764D01*
X4274362Y4664600D01*
X4305958D01*
X4336947Y4670764D01*
X4366138Y4682856D01*
X4392410Y4700409D01*
X4414751Y4722751D01*
X4432305Y4749022D01*
X4444396Y4778213D01*
X4450560Y4809202D01*
Y4840798D01*
X4444396Y4871787D01*
X4432305Y4900978D01*
X4414751Y4927249D01*
X4392410Y4949591D01*
X4366138Y4967145D01*
X4336947Y4979236D01*
X4305958Y4985400D01*
D02*
G37*
G36*
X625560Y4817900D02*
X552860D01*
Y4735200D01*
X625560D01*
Y4817900D01*
D02*
G37*
G36*
X4420000Y5075645D02*
X3966716D01*
X3957858Y5073883D01*
X3950350Y5068866D01*
X3908964Y5027480D01*
X3903947Y5019971D01*
X3902185Y5011114D01*
Y4912700D01*
X3879130D01*
Y4827300D01*
X3968030D01*
Y4912700D01*
X3948474D01*
Y5001527D01*
X3976302Y5029355D01*
X4410413D01*
X4608795Y4830974D01*
X4616303Y4825957D01*
X4625160Y4824195D01*
X4629760D01*
Y4809202D01*
X4635924Y4778213D01*
X4648016Y4749022D01*
X4665570Y4722751D01*
X4687911Y4700409D01*
X4714182Y4682856D01*
X4743373Y4670764D01*
X4774362Y4664600D01*
X4805958D01*
X4836947Y4670764D01*
X4866138Y4682856D01*
X4892410Y4700409D01*
X4914751Y4722751D01*
X4932305Y4749022D01*
X4944396Y4778213D01*
X4950560Y4809202D01*
Y4840798D01*
X4944396Y4871787D01*
X4932305Y4900978D01*
X4914751Y4927249D01*
X4892410Y4949591D01*
X4866138Y4967145D01*
X4836947Y4979236D01*
X4805958Y4985400D01*
X4774362D01*
X4743373Y4979236D01*
X4714182Y4967145D01*
X4687911Y4949591D01*
X4665570Y4927249D01*
X4648016Y4900978D01*
X4640459Y4882734D01*
X4625478Y4879754D01*
X4436366Y5068866D01*
X4428857Y5073883D01*
X4420000Y5075645D01*
D02*
G37*
G36*
X697860Y4698070D02*
Y4653620D01*
X740560D01*
Y4698070D01*
X697860D01*
D02*
G37*
G36*
X270560Y4631230D02*
X227860D01*
Y4586780D01*
X270560D01*
Y4631230D01*
D02*
G37*
G36*
X202460D02*
X159760D01*
Y4586780D01*
X202460D01*
Y4631230D01*
D02*
G37*
G36*
X740560Y4628220D02*
X697860D01*
Y4583770D01*
X740560D01*
Y4628220D01*
D02*
G37*
G36*
X625560Y4709800D02*
X552860D01*
Y4627100D01*
X617059D01*
X625560Y4627100D01*
X629760Y4616140D01*
Y4583770D01*
X672460D01*
Y4640920D01*
Y4698070D01*
X629760D01*
X625560Y4709030D01*
Y4709800D01*
D02*
G37*
G36*
X270560Y4561380D02*
X227860D01*
Y4516930D01*
X270560D01*
Y4561380D01*
D02*
G37*
G36*
X202460D02*
X159760D01*
Y4516930D01*
X202460D01*
Y4561380D01*
D02*
G37*
G36*
X357460Y4597900D02*
X284760D01*
Y4515200D01*
X357460D01*
Y4597900D01*
D02*
G37*
G36*
X455560D02*
X382860D01*
Y4502500D01*
Y4407100D01*
X455560D01*
Y4417869D01*
X467460Y4419800D01*
X468260Y4419800D01*
X612860D01*
Y4495837D01*
X642460D01*
Y4479630D01*
X727860D01*
Y4568530D01*
X642460D01*
Y4552323D01*
X612860D01*
Y4585200D01*
X468260D01*
X467460Y4585200D01*
X455560Y4587130D01*
Y4597900D01*
D02*
G37*
G36*
X357460Y4489800D02*
X284760D01*
Y4407100D01*
X357460D01*
Y4489800D01*
D02*
G37*
G36*
X1227300Y4097440D02*
X1164600D01*
Y4036480D01*
X1227300D01*
Y4097440D01*
D02*
G37*
G36*
X1740400Y4092440D02*
X1677700D01*
Y4031480D01*
X1740400D01*
Y4092440D01*
D02*
G37*
G36*
X1227300Y4011080D02*
X1164600D01*
Y3950120D01*
X1227300D01*
Y4011080D01*
D02*
G37*
G36*
X1315400Y4097440D02*
X1252700D01*
Y4023780D01*
Y3950120D01*
X1309600D01*
Y3947620D01*
X1372300D01*
Y4021280D01*
Y4094940D01*
X1315400D01*
Y4097440D01*
D02*
G37*
G36*
X1740400Y4006080D02*
X1677700D01*
Y3945120D01*
X1740400D01*
Y4006080D01*
D02*
G37*
G36*
X1652300Y4092440D02*
X1537700D01*
Y4018780D01*
Y3945120D01*
X1652300D01*
Y4018780D01*
Y4092440D01*
D02*
G37*
G36*
X1460400Y4094940D02*
X1397700D01*
Y4021280D01*
Y3947620D01*
X1449600D01*
Y3945120D01*
X1512300D01*
Y4018780D01*
Y4092440D01*
X1460400D01*
Y4094940D01*
D02*
G37*
G36*
X792900Y3863070D02*
X750200D01*
Y3818620D01*
X792900D01*
Y3863070D01*
D02*
G37*
G36*
X724800D02*
X682100D01*
Y3818620D01*
X724800D01*
Y3863070D01*
D02*
G37*
G36*
X2505200Y4250200D02*
X2249800D01*
Y3874800D01*
X2344160D01*
Y3848810D01*
X2271190Y3775841D01*
X2060200D01*
Y3781030D01*
X1974800D01*
Y3692130D01*
X1984159D01*
Y3578810D01*
X1923540Y3518191D01*
X1910840Y3523451D01*
Y3816190D01*
X1914730Y3820079D01*
X1974800D01*
Y3808970D01*
X2060200D01*
Y3897870D01*
X1974800D01*
Y3886761D01*
X1900920D01*
X1888161Y3884223D01*
X1877345Y3876996D01*
X1853925Y3853575D01*
X1846697Y3842759D01*
X1844159Y3830000D01*
Y3526697D01*
X1830803Y3513340D01*
X1812750D01*
Y3574800D01*
Y3645200D01*
X1759641D01*
Y3794920D01*
X1757103Y3807679D01*
X1749875Y3818495D01*
X1727700Y3840671D01*
Y3917180D01*
X1602300D01*
Y3889560D01*
X1587700D01*
Y3917180D01*
X1462300D01*
Y3890810D01*
X1447700D01*
Y3919680D01*
X1322300D01*
Y3893310D01*
X1302700D01*
Y3922180D01*
X1177300D01*
Y3884365D01*
X1105645D01*
Y3953680D01*
X1103883Y3962537D01*
X1098866Y3970046D01*
X1060706Y4008206D01*
X1053197Y4013223D01*
X1044340Y4014985D01*
X1000200D01*
Y4036290D01*
X914800D01*
Y3947390D01*
X1000200D01*
Y3968695D01*
X1034753D01*
X1059355Y3944093D01*
Y3872936D01*
X1061117Y3864078D01*
X1066134Y3856570D01*
X1077850Y3844854D01*
X1085359Y3839837D01*
X1094216Y3838075D01*
X1177300D01*
Y3800260D01*
X1302700D01*
Y3826629D01*
X1322300D01*
Y3797760D01*
X1447700D01*
Y3824129D01*
X1462300D01*
Y3795260D01*
X1587700D01*
Y3822879D01*
X1602300D01*
Y3795260D01*
X1647387D01*
X1648980Y3794600D01*
X1671020D01*
X1672613Y3795260D01*
X1678809D01*
X1692960Y3781110D01*
Y3645200D01*
X1639850D01*
Y3574800D01*
Y3509800D01*
Y3397900D01*
X1627150D01*
Y3362700D01*
X1825450D01*
Y3381659D01*
X1867500D01*
X1880259Y3384197D01*
X1891075Y3391425D01*
X2041075Y3541424D01*
X2048302Y3552241D01*
X2050840Y3565000D01*
Y3692130D01*
X2060200D01*
Y3709159D01*
X2285000D01*
X2297759Y3711697D01*
X2308575Y3718925D01*
X2401075Y3811425D01*
X2408303Y3822241D01*
X2410841Y3835000D01*
Y3874800D01*
X2505200D01*
Y4250200D01*
D02*
G37*
G36*
X3105200D02*
X2849800D01*
Y3874800D01*
X3105200D01*
Y4024062D01*
X3294078D01*
X3366561Y3951578D01*
Y3910400D01*
X3324600D01*
Y3749600D01*
X3485400D01*
Y3791561D01*
X3892967D01*
X3892968Y3791561D01*
X3907678Y3794487D01*
X3920149Y3802820D01*
X3926495Y3809166D01*
X3940251Y3795409D01*
X3966522Y3777855D01*
X3995713Y3765764D01*
X4026702Y3759600D01*
X4058298D01*
X4089287Y3765764D01*
X4118478Y3777855D01*
X4144749Y3795409D01*
X4167091Y3817751D01*
X4184645Y3844022D01*
X4196736Y3873213D01*
X4202900Y3904202D01*
Y3935798D01*
X4196736Y3966787D01*
X4184645Y3995978D01*
X4167091Y4022249D01*
X4144749Y4044591D01*
X4118478Y4062145D01*
X4089287Y4074236D01*
X4058298Y4080400D01*
X4026702D01*
X3995713Y4074236D01*
X3966522Y4062145D01*
X3940251Y4044591D01*
X3917909Y4022249D01*
X3900355Y3995978D01*
X3888264Y3966787D01*
X3882100Y3935798D01*
Y3904202D01*
X3887195Y3878587D01*
X3877046Y3868439D01*
X3485400D01*
Y3910400D01*
X3443439D01*
Y3967499D01*
X3443439Y3967500D01*
X3440513Y3982210D01*
X3432180Y3994680D01*
X3337180Y4089680D01*
X3324710Y4098013D01*
X3310000Y4100939D01*
X3309998Y4100939D01*
X3105200D01*
Y4250200D01*
D02*
G37*
G36*
X792900Y3793220D02*
X750200D01*
Y3748770D01*
X792900D01*
Y3793220D01*
D02*
G37*
G36*
X724800D02*
X682100D01*
Y3748770D01*
X724800D01*
Y3793220D01*
D02*
G37*
G36*
X780200Y3733530D02*
X694800D01*
Y3700549D01*
X692100Y3694031D01*
Y3675969D01*
X694800Y3669451D01*
Y3644630D01*
X716326D01*
X728469Y3639600D01*
X746531D01*
X758674Y3644630D01*
X780200D01*
Y3669451D01*
X782900Y3675969D01*
Y3694031D01*
X780200Y3700549D01*
Y3733530D01*
D02*
G37*
G36*
X956000Y3657900D02*
X869550D01*
Y3622700D01*
X956000D01*
Y3657900D01*
D02*
G37*
G36*
X326230Y3515400D02*
X281780D01*
Y3472700D01*
X326230D01*
Y3515400D01*
D02*
G37*
G36*
X256380D02*
X211930D01*
Y3472700D01*
X256380D01*
Y3515400D01*
D02*
G37*
G36*
X1000200Y3919450D02*
X914800D01*
Y3830550D01*
X934355D01*
Y3807500D01*
X936117Y3798643D01*
X941134Y3791134D01*
X966134Y3766134D01*
X973643Y3761117D01*
X982500Y3759355D01*
X1050414D01*
X1079355Y3730413D01*
Y3660784D01*
X1067850Y3657900D01*
Y3657900D01*
X981400D01*
Y3610000D01*
X968700D01*
Y3597300D01*
X869550D01*
Y3562100D01*
X882250D01*
Y3435645D01*
X844587D01*
X828866Y3451366D01*
X821357Y3456383D01*
X812500Y3458145D01*
X801370D01*
Y3587700D01*
X661670D01*
Y3412300D01*
X776433D01*
X778670Y3411855D01*
X802913D01*
X818634Y3396134D01*
X826143Y3391117D01*
X835000Y3389355D01*
X882250D01*
Y3373145D01*
X777054D01*
X775988Y3375717D01*
X763217Y3388488D01*
X746531Y3395400D01*
X728469D01*
X711783Y3388488D01*
X699012Y3375717D01*
X692100Y3359031D01*
Y3340969D01*
X699012Y3324283D01*
X711783Y3311512D01*
X728469Y3304600D01*
X746531D01*
X763217Y3311512D01*
X775988Y3324283D01*
X777054Y3326855D01*
X882250D01*
Y3240734D01*
X869550Y3240682D01*
X850209Y3260023D01*
X842700Y3265040D01*
X833843Y3266802D01*
X810072D01*
Y3288107D01*
X724672D01*
Y3278520D01*
X711972Y3273259D01*
X656366Y3328866D01*
X648857Y3333883D01*
X640000Y3335645D01*
X435000D01*
X426143Y3333883D01*
X418634Y3328866D01*
X362900Y3273131D01*
X350200Y3278392D01*
Y3290370D01*
X264800D01*
Y3201470D01*
X350200D01*
Y3222775D01*
X368420D01*
X377277Y3224537D01*
X384786Y3229554D01*
X444587Y3289355D01*
X504600D01*
Y3253620D01*
X560000D01*
X615400D01*
Y3289355D01*
X630413D01*
X692477Y3227291D01*
X699986Y3222274D01*
X708843Y3220512D01*
X724672D01*
Y3199207D01*
X810072D01*
Y3220512D01*
X824256D01*
X843634Y3201134D01*
X851143Y3196117D01*
X860000Y3194355D01*
X882250D01*
Y3176592D01*
X864950D01*
X856093Y3174830D01*
X848584Y3169813D01*
X828733Y3149962D01*
X810072D01*
Y3171267D01*
X724672D01*
Y3147225D01*
X602700D01*
Y3168530D01*
X517300D01*
Y3079630D01*
X602700D01*
Y3100935D01*
X724672D01*
Y3082367D01*
X810072D01*
Y3103672D01*
X838320D01*
X847177Y3105434D01*
X854685Y3110451D01*
X857817Y3113583D01*
X869550Y3108722D01*
Y3102700D01*
X1067850D01*
Y3137900D01*
X1055150D01*
Y3249800D01*
Y3314800D01*
Y3379800D01*
Y3444800D01*
Y3521855D01*
X1090784D01*
X1099641Y3523617D01*
X1107150Y3528634D01*
X1118866Y3540350D01*
X1123883Y3547859D01*
X1125645Y3556716D01*
Y3740000D01*
X1123883Y3748858D01*
X1118866Y3756366D01*
X1076366Y3798866D01*
X1068858Y3803883D01*
X1060000Y3805645D01*
X992087D01*
X980645Y3817087D01*
Y3830550D01*
X1000200D01*
Y3919450D01*
D02*
G37*
G36*
X430370Y3627700D02*
X341470D01*
Y3542300D01*
X362775D01*
Y3502700D01*
X341470D01*
Y3417300D01*
X430370D01*
Y3436855D01*
X468630D01*
Y3412300D01*
X608330D01*
Y3587700D01*
X468630D01*
Y3483145D01*
X430370D01*
Y3502700D01*
X409065D01*
Y3542300D01*
X430370D01*
Y3627700D01*
D02*
G37*
G36*
X326230Y3447300D02*
X281780D01*
Y3404600D01*
X326230D01*
Y3447300D01*
D02*
G37*
G36*
X256380D02*
X211930D01*
Y3404600D01*
X256380D01*
Y3447300D01*
D02*
G37*
G36*
X2505200Y3512700D02*
X2249800D01*
Y3336761D01*
X2055200D01*
Y3347870D01*
X1969800D01*
Y3336761D01*
X1896735D01*
X1883976Y3334223D01*
X1873160Y3326995D01*
X1864505Y3318341D01*
X1825450D01*
Y3337300D01*
X1627150D01*
Y3302100D01*
X1639850D01*
Y3202900D01*
X1627150D01*
Y3167700D01*
X1825450D01*
Y3186659D01*
X1857005D01*
X1880660Y3163005D01*
X1891476Y3155778D01*
X1904235Y3153240D01*
X1969800D01*
Y3142130D01*
X2055200D01*
Y3231030D01*
X1969800D01*
Y3219921D01*
X1918045D01*
X1895154Y3242812D01*
X1894920Y3243465D01*
X1894704Y3245992D01*
X1896213Y3257632D01*
X1901890Y3261425D01*
X1910545Y3270080D01*
X1969800D01*
Y3258970D01*
X2055200D01*
Y3270080D01*
X2249800D01*
Y3137300D01*
X2505200D01*
Y3512700D01*
D02*
G37*
G36*
X3415585Y3660400D02*
X3394415D01*
X3373967Y3654921D01*
X3355633Y3644336D01*
X3340664Y3629367D01*
X3330079Y3611033D01*
X3324600Y3590585D01*
Y3569415D01*
X3327866Y3557227D01*
X3134078Y3363439D01*
X3105200D01*
Y3512700D01*
X2849800D01*
Y3137300D01*
X3105200D01*
Y3286562D01*
X3149999D01*
X3150000Y3286561D01*
X3164710Y3289488D01*
X3177181Y3297820D01*
X3382227Y3502866D01*
X3394415Y3499600D01*
X3415585D01*
X3436033Y3505079D01*
X3454367Y3515664D01*
X3469336Y3530633D01*
X3475645Y3541561D01*
X3866578D01*
X3905084Y3503055D01*
X3900355Y3495978D01*
X3888264Y3466787D01*
X3882100Y3435798D01*
Y3404202D01*
X3888264Y3373213D01*
X3900355Y3344022D01*
X3917909Y3317751D01*
X3940251Y3295409D01*
X3966522Y3277855D01*
X3995713Y3265764D01*
X4026702Y3259600D01*
X4058298D01*
X4089287Y3265764D01*
X4118478Y3277855D01*
X4144749Y3295409D01*
X4167091Y3317751D01*
X4184645Y3344022D01*
X4196736Y3373213D01*
X4202900Y3404202D01*
Y3435798D01*
X4196736Y3466787D01*
X4184645Y3495978D01*
X4167091Y3522249D01*
X4144749Y3544591D01*
X4118478Y3562145D01*
X4089287Y3574236D01*
X4058298Y3580400D01*
X4026702D01*
X3995713Y3574236D01*
X3966522Y3562145D01*
X3959445Y3557416D01*
X3909681Y3607180D01*
X3897210Y3615512D01*
X3882500Y3618439D01*
X3882499Y3618439D01*
X3475645D01*
X3469336Y3629367D01*
X3454367Y3644336D01*
X3436033Y3654921D01*
X3415585Y3660400D01*
D02*
G37*
G36*
X615400Y3228220D02*
X572700D01*
Y3183770D01*
X615400D01*
Y3228220D01*
D02*
G37*
G36*
X547300D02*
X504600D01*
Y3183770D01*
X547300D01*
Y3228220D01*
D02*
G37*
G36*
X362900Y3186230D02*
X320200D01*
Y3141780D01*
X362900D01*
Y3186230D01*
D02*
G37*
G36*
X294800D02*
X252100D01*
Y3141780D01*
X294800D01*
Y3186230D01*
D02*
G37*
G36*
X1578400Y3365900D02*
X1360200D01*
Y3135200D01*
X1578400D01*
Y3365900D01*
D02*
G37*
G36*
X1334800D02*
X1116600D01*
Y3135200D01*
X1334800D01*
Y3365900D01*
D02*
G37*
G36*
X362900Y3116380D02*
X320200D01*
Y3071930D01*
X362900D01*
Y3116380D01*
D02*
G37*
G36*
X294800D02*
X252100D01*
Y3071930D01*
X294800D01*
Y3116380D01*
D02*
G37*
G36*
X603330Y3002700D02*
X463630D01*
Y2978145D01*
X422870D01*
Y2997700D01*
X333970D01*
Y2912300D01*
X355275D01*
Y2872700D01*
X333970D01*
Y2787300D01*
X422870D01*
Y2872700D01*
X401565D01*
Y2912300D01*
X422870D01*
Y2931855D01*
X463630D01*
Y2827300D01*
X603330D01*
Y3002700D01*
D02*
G37*
G36*
X318730Y3010400D02*
X274280D01*
Y2967700D01*
X318730D01*
Y3010400D01*
D02*
G37*
G36*
X248880D02*
X204430D01*
Y2967700D01*
X248880D01*
Y3010400D01*
D02*
G37*
G36*
X1825450Y3142300D02*
X1627150D01*
Y3107100D01*
X1639850D01*
Y3007900D01*
X1627150D01*
Y2972700D01*
X1825450D01*
Y2991659D01*
X1883690D01*
X2012345Y2863005D01*
X2023161Y2855777D01*
X2035920Y2853239D01*
X2092300D01*
Y2842130D01*
X2177700D01*
Y2853239D01*
X2314610D01*
X2326374Y2841475D01*
X2326375Y2841474D01*
X2344160Y2823690D01*
Y2772700D01*
X2249800D01*
Y2397300D01*
X2505200D01*
Y2772700D01*
X2410841D01*
Y2837500D01*
X2408303Y2850259D01*
X2401075Y2861075D01*
X2373526Y2888625D01*
X2373525Y2888625D01*
X2351996Y2910155D01*
X2341179Y2917383D01*
X2328421Y2919920D01*
X2177700D01*
Y2931030D01*
X2092300D01*
Y2919920D01*
X2049730D01*
X1925691Y3043959D01*
X1930952Y3056659D01*
X1963690D01*
X2040505Y2979845D01*
X2051321Y2972617D01*
X2064080Y2970079D01*
X2092300D01*
Y2958970D01*
X2177700D01*
Y3047870D01*
X2092300D01*
Y3036760D01*
X2077890D01*
X2001075Y3113575D01*
X1990259Y3120802D01*
X1977500Y3123340D01*
X1825450D01*
Y3142300D01*
D02*
G37*
G36*
X318730Y2942300D02*
X274280D01*
Y2899600D01*
X318730D01*
Y2942300D01*
D02*
G37*
G36*
X248880D02*
X204430D01*
Y2899600D01*
X248880D01*
Y2942300D01*
D02*
G37*
G36*
X1578400Y3109800D02*
X1360200D01*
Y2879100D01*
X1578400D01*
Y3109800D01*
D02*
G37*
G36*
X1334800D02*
X1116600D01*
Y2879100D01*
X1334800D01*
Y3109800D01*
D02*
G37*
G36*
X274031Y2880400D02*
X255969D01*
X239283Y2873488D01*
X238495Y2872700D01*
X217130D01*
Y2787300D01*
X306030D01*
Y2815419D01*
X310400Y2825969D01*
Y2844031D01*
X306030Y2854581D01*
Y2872700D01*
X291505D01*
X290717Y2873488D01*
X274031Y2880400D01*
D02*
G37*
G36*
X6320200Y2834070D02*
Y2764220D01*
X6407900D01*
Y2834070D01*
X6320200D01*
D02*
G37*
G36*
X6093845Y2833250D02*
X6006145D01*
Y2763400D01*
X6093845D01*
Y2833250D01*
D02*
G37*
G36*
X5609031Y2798820D02*
X5590969D01*
X5588676Y2797870D01*
X5557300D01*
Y2768969D01*
X5554600Y2762451D01*
Y2744389D01*
X5557300Y2737871D01*
Y2708970D01*
X5588676D01*
X5590969Y2708020D01*
X5609031D01*
X5611324Y2708970D01*
X5642700D01*
Y2737871D01*
X5645400Y2744389D01*
Y2762451D01*
X5642700Y2768969D01*
Y2797870D01*
X5611324D01*
X5609031Y2798820D01*
D02*
G37*
G36*
X6407900Y2738820D02*
X6320200D01*
Y2668970D01*
X6407900D01*
Y2738820D01*
D02*
G37*
G36*
X6093845Y2738000D02*
X6006145D01*
Y2668150D01*
X6093845D01*
Y2738000D01*
D02*
G37*
G36*
X6207100Y2834070D02*
X6194741Y2833250D01*
X6119245D01*
Y2750700D01*
Y2668150D01*
X6194740D01*
X6206944Y2668150D01*
X6219303Y2668970D01*
X6294800D01*
Y2751520D01*
Y2834070D01*
X6211891Y2834070D01*
X6207100D01*
D02*
G37*
G36*
X1067850Y3077300D02*
X869550D01*
Y3048145D01*
X784216D01*
X775359Y3046383D01*
X767850Y3041366D01*
X756134Y3029650D01*
X751117Y3022142D01*
X749355Y3013284D01*
Y3002700D01*
X656670D01*
Y2827300D01*
X796370D01*
Y3001855D01*
X882250D01*
Y2983145D01*
X852500D01*
X843643Y2981383D01*
X836134Y2976366D01*
X818634Y2958866D01*
X813617Y2951357D01*
X811855Y2942500D01*
Y2711167D01*
X765888Y2665200D01*
X711470D01*
Y2579800D01*
X800370D01*
Y2634219D01*
X851366Y2685214D01*
X856383Y2692723D01*
X856850Y2695070D01*
X869550Y2693819D01*
Y2647700D01*
X1067850D01*
Y2652100D01*
Y2687300D01*
X968700D01*
Y2712700D01*
X1067850D01*
Y2717100D01*
Y2752300D01*
X968700D01*
Y2777700D01*
X1067850D01*
Y2782100D01*
Y2817300D01*
X968700D01*
Y2842700D01*
X1067850D01*
Y2847100D01*
Y2882300D01*
X968700D01*
Y2907700D01*
X1067850D01*
Y2942900D01*
X1055150D01*
Y3042100D01*
X1067850D01*
Y3077300D01*
D02*
G37*
G36*
X696230Y2677900D02*
X651780D01*
Y2635200D01*
X696230D01*
Y2677900D01*
D02*
G37*
G36*
X626380D02*
X581930D01*
Y2635200D01*
X626380D01*
Y2677900D01*
D02*
G37*
G36*
X6395200Y2628330D02*
X6219800D01*
Y2591411D01*
X6194244D01*
Y2627510D01*
X6018845D01*
Y2487810D01*
X6194244D01*
Y2524730D01*
X6219800D01*
Y2488630D01*
X6315460D01*
Y2380200D01*
X6262350D01*
Y2309801D01*
Y2244800D01*
Y2179801D01*
Y2114800D01*
Y2049800D01*
Y1984800D01*
Y1919800D01*
X6435250D01*
Y1986660D01*
X6451190D01*
X6468925Y1968925D01*
X6479741Y1961697D01*
X6492500Y1959159D01*
X6497300D01*
Y1946470D01*
X6582700D01*
Y1957580D01*
X6610880D01*
Y1867300D01*
X6788680D01*
Y2092700D01*
X6610880D01*
Y2024261D01*
X6582700D01*
Y2035370D01*
X6497300D01*
X6497300Y2035370D01*
Y2035371D01*
X6491664Y2040671D01*
X6488575Y2043576D01*
X6488571Y2043579D01*
X6488124Y2043877D01*
X6477759Y2050803D01*
X6465000Y2053341D01*
X6435250D01*
Y2179801D01*
Y2246660D01*
X6462500D01*
X6475259Y2249198D01*
X6486075Y2256425D01*
X6490220Y2260570D01*
X6527500D01*
X6530720Y2261210D01*
X6580200D01*
Y2272320D01*
X6613380D01*
Y2187300D01*
X6791180D01*
Y2412700D01*
X6613380D01*
Y2339001D01*
X6580200D01*
Y2350110D01*
X6494800D01*
Y2327251D01*
X6476410D01*
X6463651Y2324713D01*
X6452835Y2317486D01*
X6448690Y2313341D01*
X6435250D01*
Y2380200D01*
X6382141D01*
Y2488630D01*
X6395200D01*
Y2628330D01*
D02*
G37*
G36*
X1067850Y2622300D02*
X981400D01*
Y2587100D01*
X1067850D01*
Y2622300D01*
D02*
G37*
G36*
X956000D02*
X869550D01*
Y2587100D01*
X956000D01*
Y2622300D01*
D02*
G37*
G36*
X696230Y2609800D02*
X651780D01*
Y2567100D01*
X696230D01*
Y2609800D01*
D02*
G37*
G36*
X626380D02*
X581930D01*
Y2567100D01*
X626380D01*
Y2609800D01*
D02*
G37*
G36*
X5642700Y2681030D02*
X5557300D01*
Y2592130D01*
X5576855D01*
Y2532912D01*
X5578617Y2524055D01*
X5583634Y2516546D01*
X5584751Y2515430D01*
X5582100Y2509031D01*
Y2490969D01*
X5589012Y2474283D01*
X5601783Y2461512D01*
X5618469Y2454600D01*
X5636531D01*
X5653217Y2461512D01*
X5665988Y2474283D01*
X5672900Y2490969D01*
Y2509031D01*
X5665988Y2525717D01*
X5653217Y2538488D01*
X5636531Y2545400D01*
X5623145D01*
Y2592130D01*
X5642700D01*
Y2681030D01*
D02*
G37*
G36*
X5198219Y2470400D02*
X5153770D01*
Y2427700D01*
X5198219D01*
Y2470400D01*
D02*
G37*
G36*
X6382500Y3030841D02*
X5657500D01*
X5644741Y3028303D01*
X5633925Y3021075D01*
X5328925Y2716075D01*
X5321698Y2705259D01*
X5319160Y2692500D01*
Y2425200D01*
X5268070D01*
Y2470400D01*
X5223619D01*
Y2415000D01*
Y2359600D01*
X5262110D01*
Y2342608D01*
X5255370Y2332700D01*
X5166470D01*
Y2247300D01*
X5250445D01*
X5255370Y2247300D01*
Y2247300D01*
X5262111Y2249800D01*
X5262111Y2249800D01*
X5401810D01*
Y2425200D01*
X5385841D01*
Y2678690D01*
X5671310Y2964159D01*
X6368690D01*
X6504159Y2828690D01*
Y2466950D01*
X6494800D01*
Y2378050D01*
X6580200D01*
Y2466950D01*
X6570841D01*
Y2842500D01*
X6568303Y2855259D01*
X6561075Y2866075D01*
X6406075Y3021075D01*
X6395259Y3028303D01*
X6382500Y3030841D01*
D02*
G37*
G36*
X5198219Y2402300D02*
X5153770D01*
Y2359600D01*
X5198219D01*
Y2402300D01*
D02*
G37*
G36*
X7458298Y2590400D02*
X7426702D01*
X7395713Y2584236D01*
X7366522Y2572145D01*
X7340250Y2554591D01*
X7317909Y2532249D01*
X7300355Y2505978D01*
X7288264Y2476787D01*
X7282100Y2445798D01*
Y2414202D01*
X7288264Y2383213D01*
X7299194Y2356826D01*
X7280806Y2338439D01*
X7136620D01*
Y2412700D01*
X6958820D01*
Y2187300D01*
X7136620D01*
Y2261562D01*
X7296727D01*
X7296728Y2261561D01*
X7311438Y2264488D01*
X7323909Y2272820D01*
X7349990Y2298901D01*
X7366522Y2287855D01*
X7395713Y2275764D01*
X7426702Y2269600D01*
X7458298D01*
X7489287Y2275764D01*
X7518478Y2287855D01*
X7544749Y2305409D01*
X7567091Y2327751D01*
X7584644Y2354022D01*
X7596736Y2383213D01*
X7602900Y2414202D01*
Y2445798D01*
X7596736Y2476787D01*
X7584644Y2505978D01*
X7567091Y2532249D01*
X7544749Y2554591D01*
X7518478Y2572145D01*
X7489287Y2584236D01*
X7458298Y2590400D01*
D02*
G37*
G36*
X3105200Y2772700D02*
X2849800D01*
Y2397300D01*
X3105200D01*
Y2546562D01*
X3324078D01*
X3396562Y2474078D01*
Y2405400D01*
X3354600D01*
Y2244600D01*
X3515400D01*
Y2286561D01*
X3905467D01*
X3905468Y2286561D01*
X3920178Y2289487D01*
X3932648Y2297820D01*
X3946495Y2311666D01*
X3960251Y2297909D01*
X3986522Y2280355D01*
X4015713Y2268264D01*
X4046702Y2262100D01*
X4078298D01*
X4109287Y2268264D01*
X4138478Y2280355D01*
X4164749Y2297909D01*
X4187091Y2320251D01*
X4204645Y2346522D01*
X4216736Y2375713D01*
X4222900Y2406702D01*
Y2438298D01*
X4216736Y2469287D01*
X4204645Y2498478D01*
X4187091Y2524749D01*
X4164749Y2547091D01*
X4138478Y2564645D01*
X4109287Y2576736D01*
X4078298Y2582900D01*
X4046702D01*
X4015713Y2576736D01*
X3986522Y2564645D01*
X3960251Y2547091D01*
X3937909Y2524749D01*
X3920355Y2498478D01*
X3908264Y2469287D01*
X3902100Y2438298D01*
Y2406702D01*
X3907195Y2381087D01*
X3889546Y2363439D01*
X3515400D01*
Y2405400D01*
X3473439D01*
Y2489999D01*
X3473439Y2490000D01*
X3470513Y2504710D01*
X3462181Y2517180D01*
X3367180Y2612180D01*
X3354710Y2620513D01*
X3340000Y2623439D01*
X3339999Y2623439D01*
X3105200D01*
Y2772700D01*
D02*
G37*
G36*
X4609031Y2572900D02*
X4590969D01*
X4574283Y2565988D01*
X4561512Y2553217D01*
X4554600Y2536531D01*
Y2518469D01*
X4561512Y2501783D01*
X4574283Y2489012D01*
X4590969Y2482100D01*
X4609031D01*
X4611603Y2483165D01*
X4700344Y2394424D01*
X4707852Y2389407D01*
X4716710Y2387645D01*
X4942300D01*
Y2362130D01*
X5027700D01*
Y2382547D01*
X5049630D01*
Y2372300D01*
X5065837D01*
Y2332700D01*
X5049630D01*
Y2247300D01*
X5138530D01*
Y2332700D01*
X5122323D01*
Y2372300D01*
X5138530D01*
Y2457700D01*
X5049630D01*
Y2439033D01*
X5027700D01*
Y2451030D01*
X4942300D01*
Y2433935D01*
X4726296D01*
X4644334Y2515897D01*
X4645400Y2518469D01*
Y2536531D01*
X4638488Y2553217D01*
X4625717Y2565988D01*
X4609031Y2572900D01*
D02*
G37*
G36*
X6203400Y2290900D02*
X6067700D01*
Y2162700D01*
X6203400D01*
Y2290900D01*
D02*
G37*
G36*
X6042300D02*
X5906600D01*
Y2162700D01*
X6042300D01*
Y2290900D01*
D02*
G37*
G36*
X5136950Y2192700D02*
X5048050D01*
Y2107300D01*
X5063467D01*
Y2072700D01*
X5046470D01*
Y2056203D01*
X5022040D01*
Y2070370D01*
X4936640D01*
Y2053145D01*
X4900000D01*
X4891143Y2051383D01*
X4883634Y2046366D01*
X4862913Y2025645D01*
X4737054D01*
X4735988Y2028217D01*
X4723217Y2040988D01*
X4706531Y2047900D01*
X4688469D01*
X4671783Y2040988D01*
X4659012Y2028217D01*
X4652100Y2011531D01*
Y1993469D01*
X4659012Y1976783D01*
X4671783Y1964012D01*
X4688469Y1957100D01*
X4706531D01*
X4723217Y1964012D01*
X4735988Y1976783D01*
X4737054Y1979355D01*
X4872500D01*
X4881357Y1981117D01*
X4888866Y1986134D01*
X4909587Y2006855D01*
X4936640D01*
Y1981470D01*
X5022040D01*
Y1999718D01*
X5046470D01*
Y1987300D01*
X5135370D01*
Y2072700D01*
X5119953D01*
Y2107300D01*
X5136950D01*
Y2192700D01*
D02*
G37*
G36*
X5195060Y2085400D02*
X5150610D01*
Y2042700D01*
X5195060D01*
Y2085400D01*
D02*
G37*
G36*
X6203400Y2137300D02*
X6067700D01*
Y2009100D01*
X6203400D01*
Y2137300D01*
D02*
G37*
G36*
X6042300D02*
X5906600D01*
Y2009100D01*
X6042300D01*
Y2137300D01*
D02*
G37*
G36*
X5195060Y2017300D02*
X5150610D01*
Y1974600D01*
X5195060D01*
Y2017300D01*
D02*
G37*
G36*
X5594850Y2425200D02*
X5455150D01*
Y2249800D01*
X5579456D01*
X5587943Y2237100D01*
X5584600Y2229031D01*
Y2210969D01*
X5587942Y2202900D01*
X5579456Y2190200D01*
X5454170D01*
Y2014800D01*
X5593870D01*
Y2056757D01*
X5674750D01*
Y1984800D01*
Y1919800D01*
X5847650D01*
Y1984800D01*
Y2102100D01*
X5860350D01*
Y2137300D01*
X5761200D01*
Y2162700D01*
X5860350D01*
Y2197900D01*
X5847650D01*
Y2232100D01*
X5860350D01*
Y2267300D01*
X5761200D01*
Y2292700D01*
X5860350D01*
Y2327900D01*
X5847650D01*
Y2380200D01*
X5674750D01*
Y2373243D01*
X5594850D01*
Y2425200D01*
D02*
G37*
G36*
X4988371Y1954480D02*
X4970309D01*
X4968016Y1953530D01*
X4936640D01*
Y1924629D01*
X4933940Y1918111D01*
Y1900050D01*
X4936640Y1893531D01*
Y1864630D01*
X4968016D01*
X4970309Y1863680D01*
X4988371D01*
X4990664Y1864630D01*
X5022040D01*
Y1893531D01*
X5024740Y1900050D01*
Y1918111D01*
X5022040Y1924629D01*
Y1953530D01*
X4990664D01*
X4988371Y1954480D01*
D02*
G37*
G36*
X6297700Y1857890D02*
X6122300D01*
Y1830817D01*
X6100200D01*
Y1856370D01*
X5924800D01*
Y1810743D01*
X5715000D01*
X5704192Y1808593D01*
X5695029Y1802471D01*
X5695029Y1802470D01*
X5510458Y1617900D01*
X5495969D01*
X5479283Y1610988D01*
X5466512Y1598217D01*
X5459600Y1581531D01*
Y1563469D01*
X5466512Y1546783D01*
X5479283Y1534012D01*
X5495969Y1527100D01*
X5514031D01*
X5530717Y1534012D01*
X5543488Y1546783D01*
X5550400Y1563469D01*
Y1577958D01*
X5726698Y1754257D01*
X5924800D01*
Y1716670D01*
X6100200D01*
Y1743744D01*
X6122300D01*
Y1718190D01*
X6297700D01*
Y1857890D01*
D02*
G37*
G36*
X7134120Y2092700D02*
X6956320D01*
Y1867300D01*
X7134120D01*
Y1891562D01*
X7286603D01*
X7288264Y1883213D01*
X7300355Y1854022D01*
X7317909Y1827751D01*
X7340250Y1805409D01*
X7366522Y1787855D01*
X7395713Y1775764D01*
X7426702Y1769600D01*
X7458298D01*
X7489287Y1775764D01*
X7518478Y1787855D01*
X7544749Y1805409D01*
X7567091Y1827751D01*
X7584644Y1854022D01*
X7596736Y1883213D01*
X7602900Y1914202D01*
Y1945798D01*
X7596736Y1976787D01*
X7584644Y2005978D01*
X7567091Y2032249D01*
X7544749Y2054591D01*
X7518478Y2072145D01*
X7489287Y2084236D01*
X7458298Y2090400D01*
X7426702D01*
X7395713Y2084236D01*
X7366522Y2072145D01*
X7340250Y2054591D01*
X7317909Y2032249D01*
X7300355Y2005978D01*
X7288264Y1976787D01*
X7286603Y1968439D01*
X7134120D01*
Y2092700D01*
D02*
G37*
G36*
X3445585Y2155400D02*
X3424415D01*
X3403967Y2149921D01*
X3385634Y2139336D01*
X3370664Y2124367D01*
X3360080Y2106033D01*
X3354600Y2085585D01*
Y2064415D01*
X3357866Y2052227D01*
X3174078Y1868439D01*
X3100200D01*
Y2017700D01*
X2844800D01*
Y1642300D01*
X3100200D01*
Y1791562D01*
X3189999D01*
X3190000Y1791561D01*
X3204710Y1794488D01*
X3217181Y1802820D01*
X3412227Y1997866D01*
X3424415Y1994600D01*
X3445585D01*
X3466033Y2000079D01*
X3484367Y2010664D01*
X3499336Y2025633D01*
X3505646Y2036561D01*
X3894078D01*
X3925084Y2005555D01*
X3920355Y1998478D01*
X3908264Y1969287D01*
X3902100Y1938298D01*
Y1906702D01*
X3908264Y1875713D01*
X3920355Y1846522D01*
X3937909Y1820251D01*
X3960251Y1797909D01*
X3986522Y1780355D01*
X4015713Y1768264D01*
X4046702Y1762100D01*
X4078298D01*
X4109287Y1768264D01*
X4138478Y1780355D01*
X4164749Y1797909D01*
X4187091Y1820251D01*
X4204645Y1846522D01*
X4216736Y1875713D01*
X4222900Y1906702D01*
Y1938298D01*
X4216736Y1969287D01*
X4204645Y1998478D01*
X4187091Y2024749D01*
X4164749Y2047091D01*
X4138478Y2064645D01*
X4109287Y2076736D01*
X4078298Y2082900D01*
X4046702D01*
X4015713Y2076736D01*
X3986522Y2064645D01*
X3979445Y2059916D01*
X3937181Y2102180D01*
X3924710Y2110512D01*
X3910000Y2113439D01*
X3909999Y2113438D01*
X3505646D01*
X3499336Y2124367D01*
X3484367Y2139336D01*
X3466033Y2149921D01*
X3445585Y2155400D01*
D02*
G37*
G36*
X497700Y1729833D02*
Y1662700D01*
X564833D01*
X559921Y1681033D01*
X549336Y1699367D01*
X534367Y1714336D01*
X516033Y1724921D01*
X497700Y1729833D01*
D02*
G37*
G36*
X472300D02*
X453967Y1724921D01*
X435633Y1714336D01*
X420664Y1699367D01*
X410079Y1681033D01*
X405167Y1662700D01*
X472300D01*
Y1729833D01*
D02*
G37*
G36*
X1825450Y2947300D02*
X1627150D01*
Y2912100D01*
X1639850D01*
Y2794800D01*
Y2729800D01*
Y2664800D01*
Y2599800D01*
X1683153D01*
X1694919Y2588034D01*
X1715280Y2579600D01*
X1737320D01*
X1757682Y2588034D01*
X1769448Y2599800D01*
X1812750D01*
Y2664800D01*
Y2771509D01*
X1824483Y2776369D01*
X1874160Y2726693D01*
Y2315435D01*
X1876698Y2302676D01*
X1883925Y2291860D01*
X1907780Y2268005D01*
X1918596Y2260778D01*
X1931355Y2258240D01*
X1957300D01*
Y2247130D01*
X2042700D01*
Y2336030D01*
X1957300D01*
Y2336030D01*
X1944600Y2333147D01*
X1940841Y2336710D01*
Y2740503D01*
X1939340Y2748049D01*
X1951044Y2754305D01*
X1966660Y2738690D01*
Y2452870D01*
X1957300D01*
Y2363970D01*
X2042700D01*
Y2375080D01*
X2085270D01*
X2129160Y2331190D01*
Y1867500D01*
X2131698Y1854741D01*
X2138925Y1843925D01*
X2176425Y1806425D01*
X2187241Y1799198D01*
X2200000Y1796660D01*
X2244800D01*
Y1642300D01*
X2500200D01*
Y2017700D01*
X2244800D01*
Y1863341D01*
X2213810D01*
X2195841Y1881310D01*
Y2345000D01*
X2193303Y2357759D01*
X2186075Y2368575D01*
X2122655Y2431995D01*
X2111839Y2439223D01*
X2099080Y2441761D01*
X2042700D01*
Y2452870D01*
X2033341D01*
Y2752500D01*
X2030803Y2765259D01*
X2023575Y2776075D01*
X1881075Y2918575D01*
X1870259Y2925803D01*
X1857500Y2928341D01*
X1825450D01*
Y2947300D01*
D02*
G37*
G36*
X6310400Y1677550D02*
X6222700D01*
Y1607700D01*
X6310400D01*
Y1677550D01*
D02*
G37*
G36*
X5999800Y1676030D02*
X5912100D01*
Y1606180D01*
X5999800D01*
Y1676030D01*
D02*
G37*
G36*
X564833Y1637300D02*
X497700D01*
Y1570167D01*
X516033Y1575079D01*
X534367Y1585664D01*
X549336Y1600633D01*
X559921Y1618967D01*
X564833Y1637300D01*
D02*
G37*
G36*
X472300D02*
X405167D01*
X410079Y1618967D01*
X420664Y1600633D01*
X435633Y1585664D01*
X453967Y1575079D01*
X472300Y1570167D01*
Y1637300D01*
D02*
G37*
G36*
X6310400Y1582300D02*
X6222700D01*
Y1512450D01*
X6310400D01*
Y1582300D01*
D02*
G37*
G36*
X6197300Y1677550D02*
X6109600D01*
Y1676030D01*
X6025200D01*
Y1593480D01*
Y1510930D01*
X6112900D01*
Y1512450D01*
X6197300D01*
Y1595000D01*
Y1677550D01*
D02*
G37*
G36*
X5999800Y1580780D02*
X5912100D01*
Y1510930D01*
X5999800D01*
Y1580780D01*
D02*
G37*
G36*
X5253789Y2192701D02*
Y2192700D01*
X5249465Y2192700D01*
X5164890D01*
Y2107300D01*
X5252639D01*
X5260681Y2097455D01*
X5258825Y2085400D01*
X5220460D01*
Y2030000D01*
Y1974600D01*
X5264910D01*
Y2014800D01*
X5302737D01*
Y1581521D01*
X5302737Y1581520D01*
X5304887Y1570712D01*
X5311009Y1561549D01*
X5485029Y1387530D01*
X5485029Y1387529D01*
X5494192Y1381407D01*
X5505000Y1379257D01*
X6314999D01*
X6315000Y1379257D01*
X6325808Y1381407D01*
X6334971Y1387529D01*
X6559971Y1612529D01*
X6566093Y1621692D01*
X6568243Y1632500D01*
Y1829630D01*
X6582700D01*
Y1918530D01*
X6497300D01*
Y1829630D01*
X6511757D01*
Y1644199D01*
X6303301Y1435743D01*
X5516698D01*
X5359223Y1593219D01*
Y2014800D01*
X5400830D01*
Y2190200D01*
X5261130D01*
Y2190201D01*
X5253789Y2192701D01*
D02*
G37*
G36*
X1825400Y1355570D02*
X1782700D01*
Y1311120D01*
X1825400D01*
Y1355570D01*
D02*
G37*
G36*
X1757300D02*
X1714600D01*
Y1311120D01*
X1757300D01*
Y1355570D01*
D02*
G37*
G36*
X1825400Y1285720D02*
X1782700D01*
Y1241270D01*
X1825400D01*
Y1285720D01*
D02*
G37*
G36*
X1757300D02*
X1714600D01*
Y1241270D01*
X1757300D01*
Y1285720D01*
D02*
G37*
G36*
X1942700Y1226030D02*
X1857300D01*
Y1204725D01*
X1812700D01*
Y1226030D01*
X1727300D01*
Y1137130D01*
X1730655D01*
Y1102700D01*
X1717350D01*
Y997300D01*
Y897300D01*
X1725557D01*
Y577700D01*
X1602300D01*
Y202300D01*
X1857700D01*
Y577700D01*
X1782043D01*
Y897300D01*
X1790250D01*
Y901855D01*
X1873664D01*
X1879255Y894870D01*
X1877130Y882700D01*
X1877130D01*
Y797300D01*
X1966030D01*
Y882700D01*
X1944725D01*
Y888420D01*
X1942963Y897277D01*
X1937946Y904786D01*
X1903576Y939156D01*
X1905693Y947757D01*
X1908468Y951856D01*
X2025413D01*
X2043634Y933634D01*
X2051143Y928617D01*
X2060000Y926855D01*
X2107300D01*
Y903970D01*
X2192700D01*
Y992870D01*
X2107300D01*
Y973145D01*
X2069587D01*
X2051365Y991366D01*
X2050566Y991900D01*
X2054419Y1004600D01*
X2095570D01*
Y1047300D01*
X1981270D01*
Y1010845D01*
X1981270Y1004600D01*
X1971243Y998145D01*
X1862101D01*
X1857561Y1009109D01*
X1865958Y1018280D01*
X1877130Y1017300D01*
Y1017300D01*
X1966030D01*
Y1102700D01*
X1877130D01*
Y1081407D01*
X1871546D01*
X1862688Y1079645D01*
X1855180Y1074628D01*
X1828697Y1048145D01*
X1790250D01*
Y1102700D01*
X1776945D01*
Y1137130D01*
X1812700D01*
Y1158436D01*
X1857300D01*
Y1137130D01*
X1942700D01*
Y1226030D01*
D02*
G37*
G36*
Y1342870D02*
X1857300D01*
Y1253970D01*
X1942700D01*
Y1259160D01*
X2023690D01*
X2536425Y746425D01*
X2547241Y739198D01*
X2560000Y736660D01*
X2657760D01*
Y707300D01*
X2660139D01*
Y682700D01*
X2548380D01*
Y457300D01*
X2603939D01*
Y422700D01*
X2548380D01*
Y343341D01*
X2457700D01*
Y577700D01*
X2202300D01*
Y202300D01*
X2457700D01*
Y276660D01*
X2548380D01*
Y197300D01*
X2726180D01*
Y422700D01*
X2670621D01*
Y457300D01*
X2726180D01*
Y622980D01*
X2726821Y626200D01*
Y707300D01*
X2779680D01*
Y832700D01*
X2746963D01*
Y884521D01*
X2751698Y889257D01*
X3260801D01*
X3276757Y873301D01*
Y762240D01*
X3237300D01*
Y640320D01*
X3362700D01*
Y762240D01*
X3333243D01*
Y884999D01*
X3333243Y885000D01*
X3331093Y895808D01*
X3324971Y904971D01*
X3292471Y937471D01*
X3283308Y943593D01*
X3272500Y945743D01*
X3272499Y945743D01*
X3051733D01*
Y1119291D01*
X3079199Y1146757D01*
X3477838D01*
X3483099Y1134057D01*
X3479892Y1130850D01*
X3472980Y1114164D01*
Y1096103D01*
X3479892Y1079416D01*
X3492663Y1066645D01*
X3495236Y1065580D01*
Y762240D01*
X3437300D01*
Y640320D01*
X3562700D01*
Y762240D01*
X3541525D01*
Y1065580D01*
X3544097Y1066645D01*
X3556869Y1079416D01*
X3563780Y1096103D01*
Y1114164D01*
X3556869Y1130850D01*
X3553662Y1134057D01*
X3558923Y1146757D01*
X3719038D01*
X3729283Y1136512D01*
X3745969Y1129600D01*
X3764031D01*
X3780717Y1136512D01*
X3793488Y1149283D01*
X3800400Y1165969D01*
Y1184031D01*
X3793488Y1200717D01*
X3780717Y1213488D01*
X3764031Y1220400D01*
X3745969D01*
X3729283Y1213488D01*
X3719038Y1203243D01*
X3067501D01*
X3067500Y1203243D01*
X3056692Y1201093D01*
X3047529Y1194971D01*
X3003519Y1150961D01*
X2997397Y1141798D01*
X2995247Y1130990D01*
X2995247Y1130989D01*
Y945743D01*
X2740000D01*
X2729192Y943593D01*
X2720029Y937471D01*
X2720029Y937470D01*
X2698749Y916191D01*
X2692627Y907028D01*
X2690477Y896220D01*
X2690477Y896219D01*
Y832700D01*
X2657760D01*
Y803341D01*
X2573810D01*
X2061075Y1316075D01*
X2050259Y1323303D01*
X2037500Y1325841D01*
X1942700D01*
Y1342870D01*
D02*
G37*
G36*
X2095570Y1115400D02*
X2051120D01*
Y1072700D01*
X2095570D01*
Y1115400D01*
D02*
G37*
G36*
X2025720D02*
X1981270D01*
Y1072700D01*
X2025720D01*
Y1115400D01*
D02*
G37*
G36*
X6020201Y1092333D02*
Y1025200D01*
X6087333D01*
X6082421Y1043533D01*
X6071836Y1061867D01*
X6056867Y1076836D01*
X6038533Y1087420D01*
X6020201Y1092333D01*
D02*
G37*
G36*
X5994801Y1092333D02*
X5976467Y1087420D01*
X5958133Y1076836D01*
X5943164Y1061867D01*
X5932579Y1043533D01*
X5927667Y1025200D01*
X5994801D01*
Y1092333D01*
D02*
G37*
G36*
X6982700Y1084833D02*
Y1017700D01*
X7049833D01*
X7044921Y1036033D01*
X7034336Y1054367D01*
X7019367Y1069336D01*
X7001033Y1079921D01*
X6982700Y1084833D01*
D02*
G37*
G36*
X6957300D02*
X6938967Y1079921D01*
X6920633Y1069336D01*
X6905664Y1054367D01*
X6895079Y1036033D01*
X6890167Y1017700D01*
X6957300D01*
Y1084833D01*
D02*
G37*
G36*
X5207700Y1082333D02*
Y1015200D01*
X5274833D01*
X5269921Y1033533D01*
X5259336Y1051867D01*
X5244367Y1066836D01*
X5226033Y1077421D01*
X5207700Y1082333D01*
D02*
G37*
G36*
X5182300D02*
X5163967Y1077421D01*
X5145633Y1066836D01*
X5130664Y1051867D01*
X5120079Y1033533D01*
X5115167Y1015200D01*
X5182300D01*
Y1082333D01*
D02*
G37*
G36*
X565400Y1480400D02*
X404600D01*
Y1319600D01*
X460274D01*
Y1022925D01*
X441730Y1019236D01*
X412539Y1007145D01*
X386268Y989591D01*
X363926Y967249D01*
X346372Y940978D01*
X334281Y911787D01*
X328117Y880798D01*
Y849202D01*
X334281Y818213D01*
X346372Y789022D01*
X363926Y762751D01*
X386268Y740409D01*
X412539Y722855D01*
X441730Y710764D01*
X472719Y704600D01*
X504315D01*
X535304Y710764D01*
X564495Y722855D01*
X567617Y724941D01*
X1010029Y282529D01*
X1019192Y276407D01*
X1030000Y274257D01*
X1030001Y274257D01*
X1364037D01*
X1374283Y264012D01*
X1390969Y257100D01*
X1409031D01*
X1425717Y264012D01*
X1438488Y276783D01*
X1445400Y293469D01*
Y311531D01*
X1438488Y328217D01*
X1425717Y340988D01*
X1409031Y347900D01*
X1390969D01*
X1374283Y340988D01*
X1364037Y330743D01*
X1041699D01*
X611399Y761042D01*
X613108Y762751D01*
X630662Y789022D01*
X642753Y818213D01*
X648917Y849202D01*
Y880798D01*
X642753Y911787D01*
X630662Y940978D01*
X613108Y967249D01*
X590766Y989591D01*
X564495Y1007145D01*
X535304Y1019236D01*
X516760Y1022925D01*
Y1310338D01*
X529460Y1315599D01*
X785029Y1060030D01*
X785029Y1060029D01*
X794192Y1053907D01*
X805000Y1051757D01*
X867300D01*
Y991100D01*
X1092700D01*
Y1051757D01*
X1127300D01*
Y991100D01*
X1352700D01*
Y1051757D01*
X1376183D01*
X1377300Y1039520D01*
X1377300D01*
Y917600D01*
X1502700D01*
Y946758D01*
X1537050D01*
Y937700D01*
X1635350D01*
Y965400D01*
X1622650D01*
Y1102700D01*
X1549750D01*
Y1003243D01*
X1502700D01*
Y1039520D01*
X1473243D01*
Y1062425D01*
X1473243Y1062426D01*
X1471093Y1073234D01*
X1464971Y1082397D01*
X1464970Y1082398D01*
X1447397Y1099971D01*
X1438234Y1106093D01*
X1427426Y1108243D01*
X1427425Y1108243D01*
X1352700D01*
Y1168900D01*
X1127300D01*
Y1108243D01*
X1092700D01*
Y1168900D01*
X867300D01*
Y1108243D01*
X816698D01*
X565400Y1359542D01*
Y1480400D01*
D02*
G37*
G36*
X6087333Y999800D02*
X6020201D01*
Y932667D01*
X6038533Y937579D01*
X6056867Y948164D01*
X6071836Y963133D01*
X6082421Y981467D01*
X6087333Y999800D01*
D02*
G37*
G36*
X5994801D02*
X5927667D01*
X5932579Y981467D01*
X5943164Y963133D01*
X5958133Y948164D01*
X5976467Y937579D01*
X5994801Y932667D01*
Y999800D01*
D02*
G37*
G36*
X7049833Y992300D02*
X6982700D01*
Y925167D01*
X7001033Y930079D01*
X7019367Y940664D01*
X7034336Y955633D01*
X7044921Y973967D01*
X7049833Y992300D01*
D02*
G37*
G36*
X6957300D02*
X6890167D01*
X6895079Y973967D01*
X6905664Y955633D01*
X6920633Y940664D01*
X6938967Y930079D01*
X6957300Y925167D01*
Y992300D01*
D02*
G37*
G36*
X5274833Y989800D02*
X5207700D01*
Y922667D01*
X5226033Y927579D01*
X5244367Y938164D01*
X5259336Y953133D01*
X5269921Y971467D01*
X5274833Y989800D01*
D02*
G37*
G36*
X5182300D02*
X5115167D01*
X5120079Y971467D01*
X5130664Y953133D01*
X5145633Y938164D01*
X5163967Y927579D01*
X5182300Y922667D01*
Y989800D01*
D02*
G37*
G36*
X5025400Y1082900D02*
X4864600D01*
Y922100D01*
X5025400D01*
Y1082900D01*
D02*
G37*
G36*
X7493298Y1040400D02*
X7490200D01*
Y892700D01*
X7637900D01*
Y895798D01*
X7631736Y926787D01*
X7619645Y955978D01*
X7602091Y982249D01*
X7579749Y1004591D01*
X7553478Y1022145D01*
X7524287Y1034236D01*
X7493298Y1040400D01*
D02*
G37*
G36*
X7464800D02*
X7461702D01*
X7430713Y1034236D01*
X7401522Y1022145D01*
X7375251Y1004591D01*
X7352909Y982249D01*
X7335355Y955978D01*
X7323264Y926787D01*
X7317100Y895798D01*
Y892700D01*
X7464800D01*
Y1040400D01*
D02*
G37*
G36*
X1635350Y912300D02*
X1598900D01*
Y884600D01*
X1635350D01*
Y912300D01*
D02*
G37*
G36*
X1573500D02*
X1537050D01*
Y884600D01*
X1573500D01*
Y912300D01*
D02*
G37*
G36*
X1427300Y889660D02*
X1364600D01*
Y836160D01*
X1252700D01*
Y734560D01*
Y632960D01*
X1365400D01*
Y742340D01*
X1427300D01*
Y816000D01*
Y889660D01*
D02*
G37*
G36*
X1515400D02*
X1452700D01*
Y828700D01*
X1515400D01*
Y889660D01*
D02*
G37*
G36*
X2082870Y882700D02*
X1993970D01*
Y797300D01*
X2082870D01*
Y816855D01*
X2107300D01*
Y787130D01*
X2192700D01*
Y876030D01*
X2107300D01*
Y863145D01*
X2082870D01*
Y882700D01*
D02*
G37*
G36*
X2954940Y845400D02*
X2893980D01*
Y782700D01*
X2954940D01*
Y845400D01*
D02*
G37*
G36*
X2868580D02*
X2807620D01*
Y782700D01*
X2868580D01*
Y845400D01*
D02*
G37*
G36*
X967300Y836160D02*
X854600D01*
Y747260D01*
X967300D01*
Y836160D01*
D02*
G37*
G36*
X1515400Y803300D02*
X1452700D01*
Y742340D01*
X1515400D01*
Y803300D01*
D02*
G37*
G36*
X7637900Y867300D02*
X7490200D01*
Y719600D01*
X7493298D01*
X7524287Y725764D01*
X7553478Y737855D01*
X7579749Y755409D01*
X7602091Y777751D01*
X7619645Y804022D01*
X7631736Y833213D01*
X7637900Y864202D01*
Y867300D01*
D02*
G37*
G36*
X7464800D02*
X7317100D01*
Y864202D01*
X7323264Y833213D01*
X7335355Y804022D01*
X7352909Y777751D01*
X7375251Y755409D01*
X7401522Y737855D01*
X7430713Y725764D01*
X7461702Y719600D01*
X7464800D01*
Y867300D01*
D02*
G37*
G36*
X3952417Y1185915D02*
X3934356D01*
X3917670Y1179003D01*
X3904898Y1166232D01*
X3897987Y1149546D01*
Y1135056D01*
X3680029Y917099D01*
X3673907Y907937D01*
X3671757Y897129D01*
X3671757Y897127D01*
Y762240D01*
X3637300D01*
Y640320D01*
X3762700D01*
Y762240D01*
X3728243D01*
Y885430D01*
X3937928Y1095115D01*
X3952417D01*
X3969104Y1102026D01*
X3981875Y1114798D01*
X3988787Y1131484D01*
Y1149546D01*
X3981875Y1166232D01*
X3969104Y1179003D01*
X3952417Y1185915D01*
D02*
G37*
G36*
X967300Y721860D02*
X854600D01*
Y632960D01*
X967300D01*
Y721860D01*
D02*
G37*
G36*
X1114600Y836160D02*
X1105400D01*
X1101900Y836160D01*
X992700D01*
Y734560D01*
Y632960D01*
X1101900D01*
X1105400Y632960D01*
X1114600D01*
X1118100Y632960D01*
X1227300D01*
Y734560D01*
Y836160D01*
X1118100D01*
X1114600Y836160D01*
D02*
G37*
G36*
X3084320Y695400D02*
X2995420D01*
Y582700D01*
X3084320D01*
Y695400D01*
D02*
G37*
G36*
X2954940Y757300D02*
X2807620D01*
Y694600D01*
X2881120D01*
Y582700D01*
X2970020D01*
Y695400D01*
X2954940D01*
Y757300D01*
D02*
G37*
G36*
X504315Y525400D02*
X501217D01*
Y377700D01*
X648917D01*
Y380798D01*
X642753Y411787D01*
X630662Y440978D01*
X613108Y467249D01*
X590766Y489591D01*
X564495Y507145D01*
X535304Y519236D01*
X504315Y525400D01*
D02*
G37*
G36*
X5338298D02*
X5335200D01*
Y377700D01*
X5482900D01*
Y380798D01*
X5476736Y411787D01*
X5464645Y440978D01*
X5447091Y467249D01*
X5424749Y489591D01*
X5398478Y507145D01*
X5369287Y519236D01*
X5338298Y525400D01*
D02*
G37*
G36*
X5309800D02*
X5306702D01*
X5275713Y519236D01*
X5246522Y507145D01*
X5220251Y489591D01*
X5197909Y467249D01*
X5180355Y440978D01*
X5168264Y411787D01*
X5162100Y380798D01*
Y377700D01*
X5309800D01*
Y525400D01*
D02*
G37*
G36*
X475817D02*
X472719D01*
X441730Y519236D01*
X412539Y507145D01*
X386268Y489591D01*
X363926Y467249D01*
X346372Y440978D01*
X334281Y411787D01*
X328117Y380798D01*
Y377700D01*
X475817D01*
Y525400D01*
D02*
G37*
G36*
X3762700Y599680D02*
X3637300D01*
Y477760D01*
X3671757D01*
Y432870D01*
X3657300D01*
Y343970D01*
X3742700D01*
Y432870D01*
X3728243D01*
Y477760D01*
X3762700D01*
Y599680D01*
D02*
G37*
G36*
X3562700Y599680D02*
X3437300D01*
Y477760D01*
X3471757D01*
Y431290D01*
X3457300D01*
Y342390D01*
X3542700D01*
Y431290D01*
X3528243D01*
Y477760D01*
X3562700D01*
Y599680D01*
D02*
G37*
G36*
X3362700D02*
X3237300D01*
Y477760D01*
X3271757D01*
Y431290D01*
X3257300D01*
Y342390D01*
X3342700D01*
Y431290D01*
X3328243D01*
Y477760D01*
X3362700D01*
Y599680D01*
D02*
G37*
G36*
X3084320Y557300D02*
X2881120D01*
Y448100D01*
X2881120Y444600D01*
Y435400D01*
X2881120Y431900D01*
Y322700D01*
X3084320D01*
Y431900D01*
X3084320Y435400D01*
Y444600D01*
X3084320Y448100D01*
Y557300D01*
D02*
G37*
G36*
X3755400Y328730D02*
X3712700D01*
Y284280D01*
X3755400D01*
Y328730D01*
D02*
G37*
G36*
X3687300D02*
X3644600D01*
Y284280D01*
X3687300D01*
Y328730D01*
D02*
G37*
G36*
X3555400Y327150D02*
X3512700D01*
Y282700D01*
X3555400D01*
Y327150D01*
D02*
G37*
G36*
X3355400D02*
X3312700D01*
Y282700D01*
X3355400D01*
Y327150D01*
D02*
G37*
G36*
X3487300D02*
X3444600D01*
Y282700D01*
X3487300D01*
Y327150D01*
D02*
G37*
G36*
X3287300D02*
X3244600D01*
Y282700D01*
X3287300D01*
Y327150D01*
D02*
G37*
G36*
X6800400Y1085400D02*
X6639600D01*
Y924600D01*
X6677714D01*
Y519634D01*
X6675713Y519236D01*
X6646522Y507145D01*
X6620251Y489591D01*
X6597909Y467249D01*
X6580355Y440978D01*
X6568264Y411787D01*
X6562100Y380798D01*
Y349202D01*
X6568264Y318213D01*
X6580355Y289022D01*
X6597909Y262751D01*
X6620251Y240409D01*
X6646522Y222855D01*
X6675713Y210764D01*
X6706702Y204600D01*
X6738298D01*
X6769287Y210764D01*
X6798478Y222855D01*
X6824749Y240409D01*
X6847091Y262751D01*
X6864645Y289022D01*
X6876736Y318213D01*
X6878874Y328964D01*
X7325024D01*
X7335355Y304022D01*
X7352909Y277751D01*
X7375251Y255409D01*
X7401522Y237855D01*
X7430713Y225764D01*
X7461702Y219600D01*
X7493298D01*
X7524287Y225764D01*
X7553478Y237855D01*
X7579749Y255409D01*
X7602091Y277751D01*
X7619645Y304022D01*
X7631736Y333213D01*
X7637900Y364202D01*
Y395798D01*
X7631736Y426787D01*
X7619645Y455978D01*
X7602091Y482249D01*
X7579749Y504591D01*
X7553478Y522145D01*
X7524287Y534236D01*
X7493298Y540400D01*
X7461702D01*
X7430713Y534236D01*
X7401522Y522145D01*
X7375251Y504591D01*
X7352909Y482249D01*
X7335355Y455978D01*
X7323264Y426787D01*
X7321126Y416037D01*
X6874976D01*
X6864645Y440978D01*
X6847091Y467249D01*
X6824749Y489591D01*
X6798478Y507145D01*
X6769287Y519236D01*
X6764786Y520131D01*
Y924600D01*
X6800400D01*
Y1085400D01*
D02*
G37*
G36*
X3755400Y258880D02*
X3712700D01*
Y214430D01*
X3755400D01*
Y258880D01*
D02*
G37*
G36*
X3687300D02*
X3644600D01*
Y214430D01*
X3687300D01*
Y258880D01*
D02*
G37*
G36*
X3555400Y257300D02*
X3512700D01*
Y212850D01*
X3555400D01*
Y257300D01*
D02*
G37*
G36*
X3487300D02*
X3444600D01*
Y212850D01*
X3487300D01*
Y257300D01*
D02*
G37*
G36*
X3355400D02*
X3312700D01*
Y212850D01*
X3355400D01*
Y257300D01*
D02*
G37*
G36*
X3287300D02*
X3244600D01*
Y212850D01*
X3287300D01*
Y257300D01*
D02*
G37*
G36*
X6337900Y1092900D02*
X6177100D01*
Y932100D01*
X6210070D01*
X6215330Y919400D01*
X6191715Y895785D01*
X6182277Y881661D01*
X6178964Y865000D01*
Y519883D01*
X6175713Y519236D01*
X6146522Y507145D01*
X6120251Y489591D01*
X6097909Y467249D01*
X6080355Y440978D01*
X6068264Y411787D01*
X6062100Y380798D01*
Y349202D01*
X6068264Y318213D01*
X6080355Y289022D01*
X6097909Y262751D01*
X6120251Y240409D01*
X6146522Y222855D01*
X6175713Y210764D01*
X6206702Y204600D01*
X6238298D01*
X6269287Y210764D01*
X6298478Y222855D01*
X6324749Y240409D01*
X6347091Y262751D01*
X6364645Y289022D01*
X6376736Y318213D01*
X6382900Y349202D01*
Y380798D01*
X6376736Y411787D01*
X6364645Y440978D01*
X6347091Y467249D01*
X6324749Y489591D01*
X6298478Y507145D01*
X6269287Y519236D01*
X6266036Y519883D01*
Y846967D01*
X6300785Y881715D01*
X6310222Y895839D01*
X6313536Y912500D01*
Y932100D01*
X6337900D01*
Y1092900D01*
D02*
G37*
G36*
X5482900Y352300D02*
X5335200D01*
Y204600D01*
X5338298D01*
X5369287Y210764D01*
X5398478Y222855D01*
X5424749Y240409D01*
X5447091Y262751D01*
X5464645Y289022D01*
X5476736Y318213D01*
X5482900Y349202D01*
Y352300D01*
D02*
G37*
G36*
X5309800D02*
X5162100D01*
Y349202D01*
X5168264Y318213D01*
X5180355Y289022D01*
X5197909Y262751D01*
X5220251Y240409D01*
X5246522Y222855D01*
X5275713Y210764D01*
X5306702Y204600D01*
X5309800D01*
Y352300D01*
D02*
G37*
G36*
X4838298Y525400D02*
X4806702D01*
X4775713Y519236D01*
X4746522Y507145D01*
X4720251Y489591D01*
X4697909Y467249D01*
X4680355Y440978D01*
X4668264Y411787D01*
X4662100Y380798D01*
Y349202D01*
X4668264Y318213D01*
X4680355Y289022D01*
X4697909Y262751D01*
X4720251Y240409D01*
X4746522Y222855D01*
X4775713Y210764D01*
X4806702Y204600D01*
X4838298D01*
X4869287Y210764D01*
X4898478Y222855D01*
X4924749Y240409D01*
X4947091Y262751D01*
X4964645Y289022D01*
X4976736Y318213D01*
X4982900Y349202D01*
Y380798D01*
X4976736Y411787D01*
X4964645Y440978D01*
X4947091Y467249D01*
X4924749Y489591D01*
X4898478Y507145D01*
X4869287Y519236D01*
X4838298Y525400D01*
D02*
G37*
G36*
X648917Y352300D02*
X501217D01*
Y204600D01*
X504315D01*
X535304Y210764D01*
X564495Y222855D01*
X590766Y240409D01*
X613108Y262751D01*
X630662Y289022D01*
X642753Y318213D01*
X648917Y349202D01*
Y352300D01*
D02*
G37*
G36*
X475817D02*
X328117D01*
Y349202D01*
X334281Y318213D01*
X346372Y289022D01*
X363926Y262751D01*
X386268Y240409D01*
X412539Y222855D01*
X441730Y210764D01*
X472719Y204600D01*
X475817D01*
Y352300D01*
D02*
G37*
G36*
X3084320Y297300D02*
X2995420D01*
Y184600D01*
X3084320D01*
Y297300D01*
D02*
G37*
G36*
X2970020D02*
X2881120D01*
Y184600D01*
X2970020D01*
Y297300D01*
D02*
G37*
%LPD*%
G36*
X5236199Y4843243D02*
X5254260D01*
X5256833Y4844309D01*
X5370374Y4730767D01*
X5377883Y4725750D01*
X5386740Y4723988D01*
X5860260D01*
Y4694433D01*
X5894815Y4659878D01*
X5889955Y4648145D01*
X5379587D01*
X5214335Y4813397D01*
X5215400Y4815969D01*
Y4834031D01*
X5212836Y4840220D01*
X5212896Y4840309D01*
X5223080Y4848677D01*
X5236199Y4843243D01*
D02*
G37*
%LPC*%
G36*
X1529150Y5917900D02*
X1484700D01*
Y5875200D01*
X1529150D01*
Y5917900D01*
D02*
G37*
G36*
X1459300D02*
X1414850D01*
Y5875200D01*
X1459300D01*
Y5917900D01*
D02*
G37*
G36*
X1529150Y5849800D02*
X1414850D01*
Y5809946D01*
X1414850Y5807100D01*
X1416430Y5795055D01*
Y5755200D01*
X1530730D01*
Y5795054D01*
X1530730Y5797900D01*
X1529150Y5809945D01*
Y5849800D01*
D02*
G37*
G36*
X1530730Y5729800D02*
X1416430D01*
Y5690600D01*
X1416429Y5687100D01*
Y5677900D01*
X1416430Y5674400D01*
Y5635200D01*
X1530730D01*
Y5674400D01*
X1530730Y5677900D01*
Y5687100D01*
X1530730Y5690600D01*
Y5729800D01*
D02*
G37*
G36*
Y5609800D02*
X1416430D01*
Y5570600D01*
X1416429Y5567100D01*
Y5557900D01*
X1416430Y5554400D01*
Y5515200D01*
X1530730D01*
Y5554400D01*
X1530730Y5557900D01*
Y5567100D01*
X1530730Y5570600D01*
Y5609800D01*
D02*
G37*
G36*
X2610560Y6237900D02*
X2547860D01*
Y6175200D01*
X2610560D01*
Y6237900D01*
D02*
G37*
G36*
X2222460D02*
X2159760D01*
Y6175200D01*
X2222460D01*
Y6237900D01*
D02*
G37*
G36*
X2522460D02*
X2397860D01*
Y6162500D01*
X2372460D01*
Y6237900D01*
X2247860D01*
Y6162500D01*
X2235160D01*
Y6149800D01*
X2159760D01*
Y6087100D01*
Y6025200D01*
X2235160D01*
Y5999800D01*
X2159760D01*
Y5937100D01*
Y5875200D01*
X2235160D01*
Y5862500D01*
X2247860D01*
Y5787100D01*
X2372460D01*
Y5862500D01*
X2397860D01*
Y5787100D01*
X2522460D01*
Y5862500D01*
X2535160D01*
Y5875200D01*
X2610560D01*
Y5937100D01*
Y5999800D01*
X2535160D01*
Y6025200D01*
X2610560D01*
Y6087100D01*
Y6149800D01*
X2535160D01*
Y6162500D01*
X2522460D01*
Y6237900D01*
D02*
G37*
G36*
X2610560Y5849800D02*
X2547860D01*
Y5787100D01*
X2610560D01*
Y5849800D01*
D02*
G37*
G36*
X2222460D02*
X2159760D01*
Y5787100D01*
X2222460D01*
Y5849800D01*
D02*
G37*
%LPD*%
D10*
X1646160Y6547500D02*
D03*
Y6420500D02*
D03*
Y6293500D02*
D03*
Y6166500D02*
D03*
Y6039500D02*
D03*
Y5912500D02*
D03*
Y5785500D02*
D03*
Y5658500D02*
D03*
Y5531500D02*
D03*
Y5404500D02*
D03*
Y5277500D02*
D03*
Y5150500D02*
D03*
Y5023500D02*
D03*
Y4896500D02*
D03*
X3396160D02*
D03*
Y5023500D02*
D03*
Y5150500D02*
D03*
Y5277500D02*
D03*
Y5404500D02*
D03*
Y5531500D02*
D03*
Y5658500D02*
D03*
Y5785500D02*
D03*
Y5912500D02*
D03*
Y6039500D02*
D03*
Y6166500D02*
D03*
Y6293500D02*
D03*
Y6420500D02*
D03*
Y6547500D02*
D03*
D11*
X1822660Y4771500D02*
D03*
X1949660D02*
D03*
X2076660D02*
D03*
X2203660D02*
D03*
X2330660D02*
D03*
X2457660D02*
D03*
X2584660D02*
D03*
X2711660D02*
D03*
X2838660D02*
D03*
X2965660D02*
D03*
X3092660D02*
D03*
X3219660D02*
D03*
D12*
X2385160Y6012500D02*
D03*
X2235160Y6162500D02*
D03*
Y6012500D02*
D03*
Y5862500D02*
D03*
X2385160D02*
D03*
X2535160D02*
D03*
Y6012500D02*
D03*
Y6162500D02*
D03*
X2385160D02*
D03*
D13*
X5761200Y2345000D02*
D03*
Y2280000D02*
D03*
Y2215000D02*
D03*
Y2150000D02*
D03*
Y2085000D02*
D03*
Y2020000D02*
D03*
Y1955000D02*
D03*
X6348800D02*
D03*
Y2020000D02*
D03*
Y2085000D02*
D03*
Y2150000D02*
D03*
Y2215000D02*
D03*
Y2280000D02*
D03*
Y2345000D02*
D03*
X968700Y3610000D02*
D03*
Y3545000D02*
D03*
Y3480000D02*
D03*
Y3415000D02*
D03*
Y3350000D02*
D03*
Y3285000D02*
D03*
Y3220000D02*
D03*
Y3155000D02*
D03*
Y3090000D02*
D03*
Y3025000D02*
D03*
Y2960000D02*
D03*
Y2895000D02*
D03*
Y2830000D02*
D03*
Y2765000D02*
D03*
Y2700000D02*
D03*
Y2635000D02*
D03*
X1726300D02*
D03*
Y2700000D02*
D03*
Y2765000D02*
D03*
Y2830000D02*
D03*
Y2895000D02*
D03*
Y2960000D02*
D03*
Y3025000D02*
D03*
Y3090000D02*
D03*
Y3155000D02*
D03*
Y3220000D02*
D03*
Y3285000D02*
D03*
Y3350000D02*
D03*
Y3415000D02*
D03*
Y3480000D02*
D03*
Y3545000D02*
D03*
Y3610000D02*
D03*
D14*
X6055000Y2150000D02*
D03*
D15*
X6699780Y1980000D02*
D03*
X7045220D02*
D03*
X2637280Y570000D02*
D03*
X2982720D02*
D03*
X2637280Y310000D02*
D03*
X2982720D02*
D03*
X6702280Y2300000D02*
D03*
X7047720D02*
D03*
D16*
X6540000Y1874080D02*
D03*
Y1990920D02*
D03*
X2135000Y2886580D02*
D03*
Y3003420D02*
D03*
X2017500Y3736580D02*
D03*
Y3853420D02*
D03*
X2012500Y3303420D02*
D03*
Y3186580D02*
D03*
X2000000Y2408420D02*
D03*
Y2291580D02*
D03*
X957500Y3991840D02*
D03*
Y3875000D02*
D03*
X307500Y3245920D02*
D03*
Y3129080D02*
D03*
X737500Y3689080D02*
D03*
Y3805920D02*
D03*
X767372Y3243657D02*
D03*
Y3126817D02*
D03*
X560000Y3124080D02*
D03*
Y3240920D02*
D03*
X5600000Y2636580D02*
D03*
Y2753420D02*
D03*
X6537500Y2422500D02*
D03*
Y2305660D02*
D03*
X4985000Y2523420D02*
D03*
Y2406580D02*
D03*
X4979340Y1909080D02*
D03*
Y2025920D02*
D03*
X1435160Y6074080D02*
D03*
Y6190920D02*
D03*
Y6410920D02*
D03*
Y6294080D02*
D03*
X3300000Y386840D02*
D03*
Y270000D02*
D03*
X3700000Y388420D02*
D03*
Y271580D02*
D03*
X3500000Y386840D02*
D03*
Y270000D02*
D03*
X685160Y4640920D02*
D03*
Y4524080D02*
D03*
X215160Y4574080D02*
D03*
Y4690920D02*
D03*
X3795160Y5480920D02*
D03*
Y5364080D02*
D03*
X4375160Y5430920D02*
D03*
Y5314080D02*
D03*
X4105160Y5420920D02*
D03*
Y5304080D02*
D03*
X3685160Y5480920D02*
D03*
Y5364080D02*
D03*
X2150000Y948420D02*
D03*
Y831580D02*
D03*
X1900000Y1181580D02*
D03*
Y1298420D02*
D03*
X1770000Y1181580D02*
D03*
Y1298420D02*
D03*
D17*
X2718720Y770000D02*
D03*
X2881280D02*
D03*
D18*
X1347500Y3122500D02*
D03*
D19*
X1665000Y4018780D02*
D03*
Y3856220D02*
D03*
X1525000Y4018780D02*
D03*
Y3856220D02*
D03*
X1385000Y4021280D02*
D03*
Y3858720D02*
D03*
X1240000Y4023780D02*
D03*
Y3861220D02*
D03*
X3300000Y538720D02*
D03*
Y701280D02*
D03*
X3500000Y538720D02*
D03*
Y701280D02*
D03*
X3700000Y538720D02*
D03*
Y701280D02*
D03*
X1440000Y816000D02*
D03*
Y978560D02*
D03*
D20*
X538480Y3500000D02*
D03*
X731520D02*
D03*
X533480Y2915000D02*
D03*
X726520D02*
D03*
X5331960Y2337500D02*
D03*
X5525000D02*
D03*
X5330980Y2102500D02*
D03*
X5524020D02*
D03*
D21*
X385920Y3460000D02*
D03*
X269080D02*
D03*
X755920Y2622500D02*
D03*
X639080D02*
D03*
X378420Y2955000D02*
D03*
X261580D02*
D03*
X378420Y2830000D02*
D03*
X261580D02*
D03*
X5210920Y2290000D02*
D03*
X5094080D02*
D03*
X5210920Y2415000D02*
D03*
X5094080D02*
D03*
X5209340Y2150000D02*
D03*
X5092500D02*
D03*
X5090920Y2030000D02*
D03*
X5207760D02*
D03*
X3809240Y4742500D02*
D03*
X3926080D02*
D03*
X385920Y3585000D02*
D03*
X269080D02*
D03*
X3923580Y4870000D02*
D03*
X3806740D02*
D03*
X1473580Y5502500D02*
D03*
X1356740D02*
D03*
X1473580Y5622500D02*
D03*
X1356740D02*
D03*
X1473580Y5742500D02*
D03*
X1356740D02*
D03*
X1472000Y5862500D02*
D03*
X1355160D02*
D03*
X963580Y6112500D02*
D03*
X846740D02*
D03*
X965160Y6012500D02*
D03*
X848320D02*
D03*
X1921580Y840000D02*
D03*
X2038420D02*
D03*
Y1060000D02*
D03*
X1921580D02*
D03*
D22*
X285160Y5008700D02*
D03*
X365160D02*
D03*
X445160D02*
D03*
X525160D02*
D03*
X605160D02*
D03*
X685160D02*
D03*
X765160D02*
D03*
X845160D02*
D03*
Y5856300D02*
D03*
X765160D02*
D03*
X685160D02*
D03*
X605160D02*
D03*
X525160D02*
D03*
X445160D02*
D03*
X365160D02*
D03*
X285160D02*
D03*
D23*
X988960Y5152500D02*
D03*
Y5232500D02*
D03*
Y5312500D02*
D03*
Y5392500D02*
D03*
Y5472500D02*
D03*
Y5552500D02*
D03*
Y5632500D02*
D03*
Y5712500D02*
D03*
X141360D02*
D03*
Y5632500D02*
D03*
Y5552500D02*
D03*
Y5472500D02*
D03*
Y5392500D02*
D03*
Y5312500D02*
D03*
Y5232500D02*
D03*
Y5152500D02*
D03*
D24*
X370160Y4722500D02*
D03*
Y4502500D02*
D03*
X540160D02*
D03*
Y4722500D02*
D03*
D25*
X1753800Y1075000D02*
D03*
Y1025000D02*
D03*
Y975000D02*
D03*
Y925000D02*
D03*
X1586200D02*
D03*
Y975000D02*
D03*
Y1025000D02*
D03*
Y1075000D02*
D03*
D26*
X4535160Y5480100D02*
D03*
Y5712500D02*
D03*
X3965160Y5486300D02*
D03*
Y5718700D02*
D03*
D27*
X4155160Y5668500D02*
D03*
Y5536500D02*
D03*
X4325160Y5668500D02*
D03*
Y5536500D02*
D03*
D28*
X3875160Y5752500D02*
D03*
X3743160D02*
D03*
X4619160Y5742500D02*
D03*
X4751160D02*
D03*
D29*
X4440160Y5892500D02*
D03*
X4340160D02*
D03*
X4190160D02*
D03*
X4090160D02*
D03*
X4140160D02*
D03*
X4240160D02*
D03*
X4290160D02*
D03*
X4390160D02*
D03*
D30*
X3945159D02*
D03*
X4025160D02*
D03*
X4505160D02*
D03*
X4585160D02*
D03*
D31*
X6307500Y2558480D02*
D03*
Y2751520D02*
D03*
X6106545Y2750700D02*
D03*
Y2557660D02*
D03*
X6210000Y1788040D02*
D03*
Y1595000D02*
D03*
X6012500Y1786520D02*
D03*
Y1593480D02*
D03*
D32*
X2972500Y1830000D02*
D03*
X2372500D02*
D03*
X2977500Y2585000D02*
D03*
X2377500D02*
D03*
X2977500Y3325000D02*
D03*
X2377500D02*
D03*
X2977500Y4062500D02*
D03*
X2377500D02*
D03*
X2330000Y390000D02*
D03*
X1730000D02*
D03*
D33*
X525160Y6132500D02*
D03*
X325160D02*
D03*
X225160D02*
D03*
X425160D02*
D03*
D34*
X85160Y6512500D02*
D03*
X665160D02*
D03*
D35*
X980000Y734560D02*
D03*
Y1080000D02*
D03*
X1240000Y734560D02*
D03*
Y1080000D02*
D03*
D36*
X6348800Y2085000D02*
Y2150000D01*
Y2215000D01*
X1356740Y5499240D02*
Y5502500D01*
X1355000Y5497500D02*
X1356740Y5499240D01*
X805000Y5632500D02*
X845160D01*
Y5856300D01*
Y5632500D02*
X988960D01*
X287481Y5114981D02*
X805000Y5632500D01*
X285160Y5008700D02*
X287481Y5011021D01*
Y5114981D01*
X1255000Y5839068D02*
X1278432Y5862500D01*
X1355160D01*
X1255000Y5705000D02*
Y5839068D01*
X1182500Y5632500D02*
X1255000Y5705000D01*
X988960Y5632500D02*
X1182500D01*
X1356740Y5502500D02*
Y5622500D01*
Y5742500D01*
X1355950Y5743290D02*
Y5861710D01*
Y5743290D02*
X1356740Y5742500D01*
X1092160Y6295500D02*
X1302500Y6085160D01*
X1305920Y6074080D02*
X1435160D01*
X1302500Y6077500D02*
Y6085160D01*
Y6077500D02*
X1305920Y6074080D01*
X1646160Y6423660D02*
X1647500Y6425000D01*
X1646160Y6420500D02*
Y6423660D01*
X1425160Y6012660D02*
Y6064080D01*
X1355160Y5942660D02*
X1425160Y6012660D01*
Y6064080D02*
X1435160Y6074080D01*
X1355160Y5862500D02*
Y5942660D01*
X847530Y6013290D02*
X848320Y6012500D01*
X847530Y6013290D02*
Y6111710D01*
X846740Y6112500D02*
X847530Y6111710D01*
X846740Y5857880D02*
Y6010920D01*
X845160Y5856300D02*
X846740Y5857880D01*
Y6010920D02*
X848320Y6012500D01*
X5331960Y2337500D02*
X5352500Y2358040D01*
Y2692500D01*
X5657500Y2997500D01*
X6382500D01*
X6537500Y2842500D01*
Y2422500D02*
Y2842500D01*
X6476410Y2293910D02*
X6527500D01*
X6537500Y2305660D02*
X6696620D01*
X6702280Y2300000D01*
X6348800Y2280000D02*
X6462500D01*
X6537500Y2303910D02*
Y2305660D01*
X6462500Y2280000D02*
X6476410Y2293910D01*
X6527500D02*
X6537500Y2303910D01*
X6688860Y1990920D02*
X6699780Y1980000D01*
X6540000Y1990920D02*
X6688860D01*
X6538420Y1992500D02*
X6540000Y1990920D01*
X6492500Y1992500D02*
X6538420D01*
X6465000Y2020000D02*
X6492500Y1992500D01*
X6348800Y2020000D02*
X6465000D01*
X6311650Y2558480D02*
X6348800Y2521330D01*
X6307500Y2558480D02*
X6311650D01*
X6348800Y2345000D02*
Y2521330D01*
X6106955Y2558070D02*
X6307090D01*
X6307500Y2558480D01*
X5293830Y2150000D02*
X5330980Y2112850D01*
Y2102500D02*
Y2112850D01*
X5209340Y2150000D02*
X5293830D01*
X5294810Y2290000D02*
X5331960Y2327150D01*
X5210920Y2290000D02*
X5294810D01*
X5331960Y2327150D02*
Y2337500D01*
X1160206Y5310000D02*
X1192707Y5277500D01*
X1646160D01*
X1157500Y5310000D02*
X1160206D01*
X1726300Y2700000D02*
Y2765000D01*
Y2635000D02*
Y2700000D01*
X1525000Y3856220D02*
X1665000D01*
X1660000Y3850000D02*
Y3851220D01*
X1665000Y3856220D01*
X2162500Y1867500D02*
X2200000Y1830000D01*
X2372500D01*
X2162500Y1867500D02*
Y2345000D01*
X2099080Y2408420D02*
X2162500Y2345000D01*
X2000000Y2408420D02*
X2099080D01*
X2377500Y2585000D02*
Y2837500D01*
X2328420Y2886580D02*
X2349950Y2865050D01*
X2377500Y2837500D01*
X2135000Y2886580D02*
X2328420D01*
X2355920Y3303420D02*
X2377500Y3325000D01*
X2012500Y3303420D02*
X2355920D01*
X2285000Y3742500D02*
X2377500Y3835000D01*
X2023420Y3742500D02*
X2285000D01*
X2377500Y3835000D02*
Y4062500D01*
X2017500Y3736580D02*
X2023420Y3742500D01*
X1907500Y2315435D02*
X1931355Y2291580D01*
X2000000D01*
X1907500Y2315435D02*
Y2740503D01*
X1726300Y2830000D02*
X1728800Y2827500D01*
X1820503D02*
X1907500Y2740503D01*
X1728800Y2827500D02*
X1820503D01*
X2017500Y3565000D02*
Y3736580D01*
X1867500Y3415000D02*
X2017500Y3565000D01*
X1857500Y2895000D02*
X2000000Y2752500D01*
Y2408420D02*
Y2752500D01*
X1726300Y2895000D02*
X1857500D01*
X1897500Y3025000D02*
X2035920Y2886580D01*
X2135000D01*
X1726300Y3025000D02*
X1897500D01*
X1977500Y3090000D02*
X2064080Y3003420D01*
X2135000D01*
X1726300Y3090000D02*
X1977500D01*
X1904235Y3186580D02*
X2012500D01*
X1870815Y3220000D02*
X1904235Y3186580D01*
X1726300Y3220000D02*
X1870815D01*
X1878315Y3285000D02*
X1896735Y3303420D01*
X2012500D01*
X1726300Y3285000D02*
X1878315D01*
X1726300Y3415000D02*
X1867500D01*
X1877500Y3512887D02*
Y3830000D01*
X1726300Y3480000D02*
X1844613D01*
X1877500Y3512887D01*
X1900920Y3853420D02*
X2017500D01*
X1877500Y3830000D02*
X1900920Y3853420D01*
X1726300Y3545000D02*
Y3610000D01*
X1666740Y3856220D02*
X1695000Y3827960D01*
X1665000Y3856220D02*
X1666740D01*
X1695000Y3826220D02*
Y3827960D01*
Y3826220D02*
X1726300Y3794920D01*
Y3610000D02*
Y3794920D01*
X1385000Y3858720D02*
X1386250Y3857470D01*
X1523750D01*
X1525000Y3856220D01*
X1240000Y3861220D02*
X1241250Y3859970D01*
X1383750D01*
X1385000Y3858720D01*
X1900000Y1298420D02*
X1905920Y1292500D01*
X2037500D01*
X2560000Y770000D02*
X2718720D01*
X2037500Y1292500D02*
X2560000Y770000D01*
X2693480Y626200D02*
Y744760D01*
X2637280Y570000D02*
X2693480Y626200D01*
Y744760D02*
X2718720Y770000D01*
X2637280Y310000D02*
Y570000D01*
X2330000Y390000D02*
X2410000Y310000D01*
X2637280D01*
X282500Y5858960D02*
Y5962500D01*
Y5858960D02*
X285160Y5856300D01*
X235160Y6009840D02*
X282500Y5962500D01*
X225160Y6132500D02*
X235160Y6122500D01*
Y6009840D02*
Y6122500D01*
X525160Y5008700D02*
Y5182500D01*
Y6102500D02*
Y6132500D01*
X425160Y5992500D02*
Y6132500D01*
X375160Y5942500D02*
X425160Y5992500D01*
X365160Y5856300D02*
X375160Y5866300D01*
Y5942500D01*
X652076Y5605583D02*
Y5608289D01*
X685160Y5641372D01*
Y5856300D01*
X605160D02*
X605160Y5856300D01*
Y5712500D02*
Y5856300D01*
X1135160Y5402500D02*
X1137160Y5404500D01*
X1646160D01*
X1645870Y6293790D02*
X1646160Y6293500D01*
X1435160Y6294080D02*
X1435450Y6293790D01*
X1645870D01*
X1435160Y6190920D02*
Y6294080D01*
D37*
X6025000Y1787280D02*
X6209240D01*
X6730000Y372500D02*
X7470000D01*
X7477500Y380000D01*
X6722500Y365000D02*
X6730000Y372500D01*
X6209240Y1787280D02*
X6210000Y1788040D01*
X6720000Y1005000D02*
X6721250Y1003750D01*
Y366250D02*
X6722500Y365000D01*
X6721250Y366250D02*
Y1003750D01*
X6270000Y912500D02*
Y1000000D01*
X6257500Y1012500D02*
X6270000Y1000000D01*
X6222500Y865000D02*
X6270000Y912500D01*
X6222500Y365000D02*
Y865000D01*
X6210321Y1787546D02*
Y1787719D01*
X6210000Y1788040D02*
X6210321Y1787719D01*
D38*
X5715000Y1782500D02*
X6025000D01*
X3700000Y897129D02*
X3943387Y1140515D01*
X3700000Y701280D02*
Y897129D01*
X5505000Y1572500D02*
X5715000Y1782500D01*
X5330980Y1581520D02*
Y2102500D01*
X5505000Y1407500D02*
X6315000D01*
X5330980Y1581520D02*
X5505000Y1407500D01*
X3685160Y5364080D02*
X3795160D01*
X1350000Y4972500D02*
X1351250Y4971250D01*
Y4620290D02*
Y4971250D01*
X3023490Y917500D02*
Y1130990D01*
X3067500Y1175000D01*
X3023490Y917500D02*
X3272500D01*
X2740000D02*
X3023490D01*
X3067500Y1175000D02*
X3755000D01*
X3272500Y917500D02*
X3305000Y885000D01*
Y706280D02*
Y885000D01*
X2718720Y770000D02*
Y896220D01*
X2740000Y917500D01*
X2718720Y770000D02*
Y771740D01*
X1350000Y4619040D02*
X1351250Y4620290D01*
X5976409Y5546250D02*
X7356410D01*
X7365160Y5555000D01*
X5967660Y5537500D02*
X5976409Y5546250D01*
X488517Y843983D02*
X1030000Y302500D01*
X1400000D01*
X488517Y843983D02*
Y865000D01*
X3300000Y701280D02*
X3305000Y706280D01*
X3947586Y5364080D02*
X3965160Y5381654D01*
Y5486300D01*
X3795160Y5364080D02*
X3947586D01*
X6540000Y1632500D02*
Y1874080D01*
X6315000Y1407500D02*
X6540000Y1632500D01*
X5541520Y2085000D02*
X5761200D01*
X5524020Y2102500D02*
X5541520Y2085000D01*
X5532500Y2345000D02*
X5761200D01*
X5525000Y2337500D02*
X5532500Y2345000D01*
X5091710Y2030790D02*
Y2149210D01*
X5090920Y2030000D02*
X5091710Y2030790D01*
Y2149210D02*
X5092500Y2150000D01*
X4981380Y2027960D02*
X5088880D01*
X4979340Y2025920D02*
X4981380Y2027960D01*
X5088880D02*
X5090920Y2030000D01*
X5094080Y2290000D02*
Y2415000D01*
X4989210Y2410790D02*
X5089870D01*
X5094080Y2415000D01*
X1443560Y975000D02*
X1586200D01*
X1440000Y978560D02*
X1443560Y975000D01*
X1240000Y1080000D02*
X1427426D01*
X1440000Y978560D02*
X1445000Y983560D01*
Y1062426D01*
X1427426Y1080000D02*
X1445000Y1062426D01*
X980000Y1080000D02*
X1240000D01*
X488517Y1396483D02*
X805000Y1080000D01*
X485000Y1400000D02*
X488517Y1396483D01*
X805000Y1080000D02*
X980000D01*
X488517Y865000D02*
Y1396483D01*
X3300000Y386840D02*
Y538720D01*
X3300000Y538720D01*
X3500000Y386840D02*
Y538720D01*
X3700000Y388420D02*
Y538720D01*
X445160Y5008700D02*
X445160Y5008700D01*
Y4872500D02*
Y5008700D01*
X561740Y4524080D02*
X685160D01*
X540160Y4502500D02*
X561740Y4524080D01*
X215160Y4690920D02*
X338580D01*
X370160Y4722500D01*
X365160Y4727500D02*
X370160Y4722500D01*
X365160Y4727500D02*
Y5008700D01*
X1730000Y390000D02*
X1753800Y413800D01*
Y925000D01*
D39*
X3696876Y5117500D02*
X3827500D01*
X3685160Y5129216D02*
Y5364080D01*
Y5129216D02*
X3696876Y5117500D01*
X3827500D02*
X4498444D01*
X3587500Y4997500D02*
Y5462500D01*
X3518500Y5531500D02*
X3587500Y5462500D01*
X3805456Y4876762D02*
Y4985784D01*
X3793740Y4997500D02*
X3805456Y4985784D01*
X3587500Y4997500D02*
X3793740D01*
X2337500Y4915000D02*
X3172500D01*
X901949Y4790000D02*
X904698Y4787251D01*
X710000Y4790000D02*
X901949D01*
X605160Y4894841D02*
X710000Y4790000D01*
X605160Y4894841D02*
Y5008700D01*
X705160Y4894840D02*
X745000Y4855000D01*
X912500D01*
X705160Y4894840D02*
Y4988700D01*
X3512000Y4760500D02*
Y5392784D01*
Y4760500D02*
X3535000Y4737500D01*
X3804240D01*
X3396160Y5404500D02*
X3500284D01*
X3512000Y5392784D01*
X2332500Y4992500D02*
X2335000Y4995000D01*
X3075000D02*
X3077500Y4997500D01*
X2335000Y4995000D02*
X3075000D01*
X3087660Y5080000D02*
X3271160Y4896500D01*
X2299924Y5080000D02*
X3087660D01*
X1799101Y5580823D02*
X2299924Y5080000D01*
X685160Y5008700D02*
X705160Y4988700D01*
X988960Y4566040D02*
X4251460D01*
X988960D02*
Y5152500D01*
X1145000Y4695710D02*
Y5190000D01*
X1110000Y4660711D02*
X1145000Y4695710D01*
X1102500Y5232500D02*
X1145000Y5190000D01*
X3198856Y4403444D02*
X3761882D01*
X3187912Y4392500D02*
X3198856Y4403444D01*
X3182500Y4392500D02*
X3187912D01*
X4524215Y4475500D02*
X5075784D01*
X4522979Y4474263D02*
X4524215Y4475500D01*
X5087500Y4487216D02*
Y4910000D01*
X4632500Y4360000D02*
X5697500D01*
X4570000Y4422500D02*
X4632500Y4360000D01*
X5075784Y4475500D02*
X5087500Y4487216D01*
X4287500Y4625000D02*
X4770063Y4142437D01*
Y2747096D02*
Y4142437D01*
X2339216Y4625000D02*
X4287500D01*
X5170000Y4825000D02*
X5370000Y4625000D01*
X6526725D02*
X6667535Y4765811D01*
X5370000Y4625000D02*
X6526725D01*
X6667535Y4765811D02*
X7363160D01*
X5087500Y4910000D02*
X5424633Y5247133D01*
X5245230Y4888643D02*
X5386740Y4747133D01*
X5965660D01*
X5424633Y5247133D02*
X5965660D01*
X4420000Y5052500D02*
X4625160Y4847340D01*
X3966716Y5052500D02*
X4420000D01*
X4625160Y4847340D02*
X4767821D01*
X4790160Y4825000D01*
X3925330Y5011114D02*
X3966716Y5052500D01*
X3925330Y4870000D02*
Y5011114D01*
X2097500Y4487500D02*
X2102912D01*
X2117912Y4472500D01*
X3767500D01*
X1110000Y4660000D02*
Y4660711D01*
X2471523Y5136605D02*
X2539918Y5205000D01*
X2637500D01*
X7356410Y6046250D02*
X7365160Y6055000D01*
X5976409Y6046250D02*
X7356410D01*
X5967660Y6037500D02*
X5976409Y6046250D01*
Y6308250D02*
X7356410D01*
X7365160Y6317000D01*
X5967660Y6299500D02*
X5976409Y6308250D01*
X4498444Y5117500D02*
X4535160Y5154216D01*
Y5480100D01*
X3500000Y701280D02*
X3518380Y719660D01*
Y1105133D01*
X269080Y3585000D02*
Y3846160D01*
X988960Y4566040D01*
X1774000Y4896500D02*
X1872500Y4995000D01*
Y5347500D01*
X1646160Y4896500D02*
X1774000D01*
X3271160D02*
X3396160D01*
X2206042Y4572500D02*
Y4769118D01*
X4251460Y4566040D02*
X4647500Y4170000D01*
X2327500Y4636716D02*
X2339216Y4625000D01*
X3946080Y4722500D02*
X4052500D01*
X3926080Y4742500D02*
X3946080Y4722500D01*
X4052500D02*
X4125160Y4795161D01*
X4260321D02*
X4290160Y4825000D01*
X4125160Y4795161D02*
X4260321D01*
X4900000Y2030000D02*
X4975260D01*
X4979340Y2025920D01*
X4872500Y2002500D02*
X4900000Y2030000D01*
X4697500Y2002500D02*
X4872500D01*
X4716710Y2410790D02*
X4989210D01*
X4600000Y2527500D02*
X4716710Y2410790D01*
X2327500Y4636716D02*
Y4750000D01*
X4647500Y2712500D02*
Y4170000D01*
X2203660Y4771500D02*
X2206042Y4769118D01*
X4836580Y2523420D02*
X4985000D01*
X4647500Y2712500D02*
X4836580Y2523420D01*
X2330660Y4753160D02*
Y4771500D01*
X2327500Y4750000D02*
X2330660Y4753160D01*
X3804240Y4737500D02*
X3809240Y4742500D01*
X3396160Y5531500D02*
X3518500D01*
X5632500Y2217500D02*
X5758700D01*
X5761200Y2215000D01*
X5630000Y2220000D02*
X5632500Y2217500D01*
X5600000Y2532912D02*
X5627500Y2505412D01*
X5600000Y2532912D02*
Y2636580D01*
X5627500Y2500000D02*
Y2505412D01*
X988960Y5232500D02*
X1102500D01*
X261580Y2831580D02*
X265000Y2835000D01*
X261580Y2830000D02*
Y2831580D01*
X1060000Y3782500D02*
X1102500Y3740000D01*
Y3556716D02*
Y3740000D01*
X982500Y3782500D02*
X1060000D01*
X1094216Y3861220D02*
X1240000D01*
X1082500Y3872936D02*
X1094216Y3861220D01*
X1082500Y3872936D02*
Y3953680D01*
X1044340Y3991840D02*
X1082500Y3953680D01*
X957500Y3991840D02*
X1044340D01*
X957500Y3807500D02*
Y3875000D01*
Y3807500D02*
X982500Y3782500D01*
X968700Y3545000D02*
X1090784D01*
X1102500Y3556716D01*
X737500Y3350000D02*
X968700D01*
X737500Y3685000D02*
Y3689080D01*
X966200Y3412500D02*
X968700Y3415000D01*
X835000Y3412500D02*
X966200D01*
X731520Y3482150D02*
X778670Y3435000D01*
X812500D01*
X731520Y3482150D02*
Y3500000D01*
X812500Y3435000D02*
X835000Y3412500D01*
X385920Y3460000D02*
X498480D01*
X538480Y3500000D01*
X385920Y3460000D02*
Y3585000D01*
X560000Y3124080D02*
X764635D01*
X767372Y3126817D01*
X307500Y3245920D02*
X368420D01*
X435000Y3312500D01*
X640000D01*
X708843Y3243657D02*
X767372D01*
X640000Y3312500D02*
X708843Y3243657D01*
X968700Y3220000D02*
Y3285000D01*
X860000Y3217500D02*
X966200D01*
X968700Y3220000D01*
X833843Y3243657D02*
X860000Y3217500D01*
X767372Y3243657D02*
X833843D01*
X864950Y3153447D02*
X967147D01*
X968700Y3155000D01*
X767372Y3126817D02*
X838320D01*
X864950Y3153447D01*
X378420Y2955000D02*
X493480D01*
X533480Y2915000D01*
X378420Y2830000D02*
Y2955000D01*
X772500Y2960980D02*
Y3013284D01*
X784216Y3025000D02*
X968700D01*
X772500Y3013284D02*
X784216Y3025000D01*
X726520Y2915000D02*
X772500Y2960980D01*
X852500Y2960000D02*
X968700D01*
X835000Y2942500D02*
X852500Y2960000D01*
X835000Y2701580D02*
Y2942500D01*
X755920Y2622500D02*
X757670D01*
X777670Y2642500D01*
Y2644250D01*
X835000Y2701580D01*
X4827160Y6007500D02*
Y6407500D01*
X3252660Y6512500D02*
X3320160D01*
X3212660Y6472500D02*
X3252660Y6512500D01*
X1220580Y6294080D02*
X1435160D01*
X1092160Y6422500D02*
X1220580Y6294080D01*
X1435160Y6410920D02*
Y6505784D01*
X1446875Y6517500D02*
X1570160D01*
X1435160Y6505784D02*
X1446875Y6517500D01*
X4737160Y5752500D02*
X4747160Y5742500D01*
X4605160Y5856216D02*
X4637444D01*
X4737160Y5756500D01*
X4747160Y5742500D02*
X4751160D01*
X4737160Y5752500D02*
Y5756500D01*
X4585160Y5892500D02*
X4605160Y5872500D01*
Y5856216D02*
Y5872500D01*
X3747160Y5752500D02*
X3821160Y5826500D01*
Y5828500D01*
X3885160Y5892500D01*
X3743160Y5752500D02*
X3747160D01*
X3885160Y5892500D02*
X3945159D01*
X4090160Y5435920D02*
X4105160Y5420920D01*
X4090160Y5435920D02*
Y5892500D01*
X4505160D02*
X4520160Y5877500D01*
Y5742500D02*
Y5877500D01*
X4390160Y5445920D02*
Y5892500D01*
X4375160Y5430920D02*
X4390160Y5445920D01*
X4155160Y5668500D02*
Y5772500D01*
X4190160Y5807500D01*
Y5892500D01*
X4005748Y5759288D02*
X4025160Y5778699D01*
X3965160Y5718700D02*
Y5744288D01*
X3980160Y5759288D01*
X4005748D01*
X4025160Y5778699D02*
Y5892500D01*
X3965160Y5718700D02*
Y5737500D01*
X3875160Y5752500D02*
X3950160D01*
X3965160Y5737500D01*
X4520160Y5742500D02*
X4535160Y5727500D01*
Y5712500D02*
Y5727500D01*
X4550160Y5742500D01*
X4619160D01*
X4237660Y5890000D02*
X4240160Y5892500D01*
X4235160Y5772500D02*
X4237660Y5775000D01*
Y5890000D01*
X4290160Y5752547D02*
Y5892500D01*
X4325274Y5667625D02*
Y5760057D01*
X4340160Y5774943D01*
Y5892500D01*
X4249057Y5680216D02*
Y5711445D01*
X4290160Y5752547D01*
X4237342Y5668500D02*
X4249057Y5680216D01*
X4155160Y5668500D02*
X4237342D01*
X2165160Y6527501D02*
X2750159D01*
X3105160Y6172500D01*
X1305160Y6452500D02*
Y6502500D01*
X1265160Y6542500D02*
X1305160Y6502500D01*
X1025160Y6542500D02*
X1265160D01*
X983337Y6500677D02*
X1025160Y6542500D01*
X983337Y6440677D02*
Y6500677D01*
X3105160Y6172500D02*
X3390160D01*
X3396160Y6166500D01*
X965160Y6422500D02*
X983337Y6440677D01*
X2148420Y950000D02*
X2150000Y948420D01*
X2060000Y950000D02*
X2148420D01*
X2034999Y975000D02*
X2060000Y950000D01*
X1753800Y975000D02*
X2034999D01*
X2038420Y840000D02*
X2141580D01*
X2150000Y831580D01*
X1885000Y925000D02*
X1921580Y888420D01*
Y840000D02*
Y888420D01*
X1753800Y925000D02*
X1885000D01*
X1919841Y1058262D02*
X1921580Y1060000D01*
X1871546Y1058262D02*
X1919841D01*
X1850000Y1036716D02*
X1871546Y1058262D01*
X1850000Y1036716D02*
Y1036716D01*
X1838284Y1025000D02*
X1850000Y1036716D01*
X1753800Y1025000D02*
X1838284D01*
X1770000Y1181580D02*
X1900000D01*
X1753800Y1075000D02*
Y1165380D01*
X1770000Y1181580D01*
D40*
X7095220Y1930000D02*
X7442500D01*
X7045220Y1980000D02*
X7095220Y1930000D01*
X7296728Y2300000D02*
X7426728Y2430000D01*
X7442500D01*
X7047720Y2300000D02*
X7296728D01*
X3405000Y3830000D02*
X3892968D01*
X3982968Y3920000D01*
X4042500D01*
X3310000Y4062500D02*
X3405000Y3967500D01*
Y3830000D02*
Y3967500D01*
X2977500Y4062500D02*
X3310000D01*
X3405000Y3580000D02*
X3882500D01*
X4042500Y3420000D01*
X2977500Y3325000D02*
X3150000D01*
X3405000Y3580000D01*
X4002968Y2422500D02*
X4062500D01*
X3435000Y2325000D02*
X3905468D01*
X4002968Y2422500D01*
X3340000Y2585000D02*
X3435000Y2490000D01*
Y2325000D02*
Y2490000D01*
X2977500Y2585000D02*
X3340000D01*
X3910000Y2075000D02*
X4062500Y1922500D01*
X3435000Y2075000D02*
X3910000D01*
X3190000Y1830000D02*
X3435000Y2075000D01*
X2972500Y1830000D02*
X3190000D01*
D41*
X7363160Y5265811D02*
D03*
Y5019811D02*
D03*
X5965660Y5247133D02*
D03*
Y5001133D02*
D03*
X5967660Y6037500D02*
D03*
Y5791500D02*
D03*
Y6299500D02*
D03*
X7365160Y6055000D02*
D03*
Y5809000D02*
D03*
Y6317000D02*
D03*
D42*
X7363160Y4765811D02*
D03*
X5965660Y4747133D02*
D03*
X5967660Y5537500D02*
D03*
X7365160Y5555000D02*
D03*
D43*
X4042500Y3920000D02*
D03*
Y3420000D02*
D03*
X488517Y365000D02*
D03*
Y865000D02*
D03*
X7477500Y880000D02*
D03*
Y380000D02*
D03*
X4290160Y4825000D02*
D03*
X4790160D02*
D03*
X7442500Y2430000D02*
D03*
Y1930000D02*
D03*
X4062500Y2422500D02*
D03*
Y1922500D02*
D03*
X6222500Y365000D02*
D03*
X6722500D02*
D03*
X5322500D02*
D03*
X4822500D02*
D03*
D44*
X485000Y1400000D02*
D03*
X3405000Y3830000D02*
D03*
X3435000Y2325000D02*
D03*
D45*
X485000Y1650000D02*
D03*
X6970000Y1005000D02*
D03*
X6007500Y1012500D02*
D03*
X3405000Y3580000D02*
D03*
X3435000Y2075000D02*
D03*
X5195000Y1002500D02*
D03*
D46*
X6720000Y1005000D02*
D03*
X6257500Y1012500D02*
D03*
X4945000Y1002500D02*
D03*
D47*
X1092160Y6422500D02*
D03*
Y6295500D02*
D03*
X965160Y6422500D02*
D03*
Y6295500D02*
D03*
X838160Y6422500D02*
D03*
Y6295500D02*
D03*
D48*
X3703160Y6407500D02*
D03*
X4827160D02*
D03*
D49*
X3703160Y6007500D02*
D03*
X4827160D02*
D03*
D50*
X1947500Y4222500D02*
D03*
X1980000Y4255000D02*
D03*
X2012500Y4285000D02*
D03*
X2045000Y4317500D02*
D03*
X4290000Y3030000D02*
D03*
X4322500Y3060000D02*
D03*
X4352500Y3095000D02*
D03*
Y3142500D02*
D03*
Y3190000D02*
D03*
Y3237500D02*
D03*
Y3285000D02*
D03*
Y3332500D02*
D03*
Y3380000D02*
D03*
Y3427500D02*
D03*
Y3475000D02*
D03*
Y3522500D02*
D03*
Y3570000D02*
D03*
Y3617500D02*
D03*
Y3665000D02*
D03*
Y3712500D02*
D03*
Y3760000D02*
D03*
Y3807500D02*
D03*
Y3855000D02*
D03*
Y3902500D02*
D03*
Y3950000D02*
D03*
Y3997500D02*
D03*
Y4045000D02*
D03*
Y4092500D02*
D03*
Y4137500D02*
D03*
Y4185000D02*
D03*
X4290000Y2767500D02*
D03*
X4315000Y2735000D02*
D03*
X4340000Y2702500D02*
D03*
X4215000Y1517500D02*
D03*
X4250000Y1547500D02*
D03*
X4285000Y1575000D02*
D03*
X4322500Y1600000D02*
D03*
X4360000Y1627500D02*
D03*
X4362500Y1672500D02*
D03*
Y1717500D02*
D03*
Y1762500D02*
D03*
Y1807500D02*
D03*
Y1852500D02*
D03*
Y1897500D02*
D03*
Y1942500D02*
D03*
Y1987500D02*
D03*
Y2032500D02*
D03*
Y2077500D02*
D03*
Y2122500D02*
D03*
Y2167500D02*
D03*
Y2215000D02*
D03*
Y2262500D02*
D03*
Y2310000D02*
D03*
Y2355000D02*
D03*
Y2400000D02*
D03*
Y2445000D02*
D03*
Y2490000D02*
D03*
Y2535000D02*
D03*
Y2580000D02*
D03*
Y2625000D02*
D03*
Y2667500D02*
D03*
X2080000Y4350000D02*
D03*
X2125000D02*
D03*
X2170000D02*
D03*
X2215000D02*
D03*
X2260000D02*
D03*
X2305000D02*
D03*
X2350000D02*
D03*
X2395000D02*
D03*
X2440000D02*
D03*
X2485000D02*
D03*
X2530000D02*
D03*
X2575000D02*
D03*
X2620000D02*
D03*
X2665000D02*
D03*
X2710000D02*
D03*
X2755000D02*
D03*
X2800000D02*
D03*
X3577500Y4307500D02*
D03*
X3532500D02*
D03*
X3487500D02*
D03*
X3442500D02*
D03*
X3397500D02*
D03*
X3352500D02*
D03*
X3310000D02*
D03*
X3265000D02*
D03*
X3222500D02*
D03*
X3180000D02*
D03*
X3137500D02*
D03*
X3095000D02*
D03*
X3052500D02*
D03*
X3010000Y4310000D02*
D03*
X2970000Y4327500D02*
D03*
X2932500Y4350000D02*
D03*
X2887500D02*
D03*
X2842500D02*
D03*
X4350000Y4227500D02*
D03*
X4307500D02*
D03*
X4265000D02*
D03*
X4222500D02*
D03*
X4180000D02*
D03*
X4137500D02*
D03*
X4095000D02*
D03*
X4052500D02*
D03*
X4010000D02*
D03*
X3967500D02*
D03*
X3925000D02*
D03*
X3882500D02*
D03*
X3840000D02*
D03*
X3797500D02*
D03*
X3755000D02*
D03*
X2385000Y6012500D02*
D03*
X3943387Y1140515D02*
D03*
X5505000Y1572500D02*
D03*
X3512500Y4810000D02*
D03*
X3172500Y4915000D02*
D03*
X2337500D02*
D03*
X904698Y4787251D02*
D03*
X912500Y4855000D02*
D03*
X1350000Y4972500D02*
D03*
X3587500Y4997500D02*
D03*
X3077500D02*
D03*
X2332500Y4992500D02*
D03*
X2710273Y4757941D02*
D03*
X3182500Y4392500D02*
D03*
X3761882Y4403444D02*
D03*
X4570000Y4422500D02*
D03*
X4522979Y4474263D02*
D03*
X5697500Y4360000D02*
D03*
X3809240Y4742500D02*
D03*
X5170000Y4825000D02*
D03*
X3805456Y4876762D02*
D03*
X5245230Y4888643D02*
D03*
X2082070Y4769204D02*
D03*
X1350000Y4619040D02*
D03*
X2097500Y4487500D02*
D03*
X3767500Y4472500D02*
D03*
X3755000Y1175000D02*
D03*
X4979340Y1909080D02*
D03*
X5600000Y2753420D02*
D03*
X1110000Y4660000D02*
D03*
X2457500Y4777500D02*
D03*
X2471523Y5136605D02*
D03*
X2637500Y5205000D02*
D03*
X2573926Y4771718D02*
D03*
X3827500Y5117500D02*
D03*
X3518380Y1105133D02*
D03*
X2718720Y770000D02*
D03*
X2220000Y1270000D02*
D03*
X2190000Y1300000D02*
D03*
X2157500Y1327500D02*
D03*
X2125000Y1355000D02*
D03*
X2092500Y1382500D02*
D03*
X1475000Y1325000D02*
D03*
X1560000D02*
D03*
X1432500D02*
D03*
X1517500D02*
D03*
X1390000Y1327500D02*
D03*
X1347500D02*
D03*
X1305000D02*
D03*
X1355000Y5497500D02*
D03*
X1872500Y5347500D02*
D03*
X1646160Y5023500D02*
D03*
X4155160Y5668500D02*
D03*
X3500000Y701280D02*
D03*
X1400000Y302500D02*
D03*
X4697500Y2002500D02*
D03*
X4600000Y2527500D02*
D03*
X4770063Y2747096D02*
D03*
X2327500Y4750000D02*
D03*
X1302500Y6077500D02*
D03*
X1647500Y6425000D02*
D03*
X5630000Y2220000D02*
D03*
X5627500Y2500000D02*
D03*
X265000Y2835000D02*
D03*
X737500Y3350000D02*
D03*
Y3685000D02*
D03*
X2437500Y1060000D02*
D03*
X2407500Y1090000D02*
D03*
X2377500Y1122500D02*
D03*
X2345000Y1152500D02*
D03*
X2312500Y1182500D02*
D03*
X2282500Y1212500D02*
D03*
X2250000Y1240000D02*
D03*
X2007500Y1385000D02*
D03*
X1965000D02*
D03*
X2050000Y1382500D02*
D03*
X3212660Y6472500D02*
D03*
X1257660Y6365000D02*
D03*
X1272660Y6217500D02*
D03*
X1837500Y1387500D02*
D03*
X1880000D02*
D03*
X1922500D02*
D03*
X4862660Y5560000D02*
D03*
X3565160Y5850000D02*
D03*
X1925160Y5895000D02*
D03*
X2047660Y6317500D02*
D03*
X495160Y6337500D02*
D03*
X187660Y6335000D02*
D03*
X685160Y6035000D02*
D03*
X1252660Y5972500D02*
D03*
X1090160Y5905000D02*
D03*
X932660Y5820000D02*
D03*
X1602500Y1325000D02*
D03*
X1262500Y1327500D02*
D03*
X1220000D02*
D03*
X1177500D02*
D03*
X1135000Y1330000D02*
D03*
X1092500D02*
D03*
X1060000Y1360000D02*
D03*
X1025000Y1387500D02*
D03*
X992500Y1415000D02*
D03*
X960000Y1442500D02*
D03*
X925000Y1467500D02*
D03*
X892500Y1495000D02*
D03*
X860000Y1522500D02*
D03*
X827500Y1552500D02*
D03*
X797500Y1582500D02*
D03*
X4235160Y5772500D02*
D03*
X4325274Y5667625D02*
D03*
X445160Y4872500D02*
D03*
X540160Y4502500D02*
D03*
D51*
X6025000Y1782500D02*
D03*
X6103135Y2556193D02*
D03*
X6348800Y2150000D02*
D03*
X6210321Y1787546D02*
D03*
X1726300Y2635000D02*
D03*
X1660000Y3850000D02*
D03*
D52*
X1157500Y5310000D02*
D03*
X525160Y5182500D02*
D03*
Y6102500D02*
D03*
X652076Y5605583D02*
D03*
X3396160Y4896500D02*
D03*
X1799101Y5580823D02*
D03*
X2165160Y6527501D02*
D03*
X1305160Y6452500D02*
D03*
X3396160Y6039500D02*
D03*
X605160Y5712500D02*
D03*
X1135160Y5402500D02*
D03*
%TF.MD5,acc57ecef9f4a7fbec6b4cd1f4e55776*%
M02*
